# File produced by Open Asset Import Library (http://www.assimp.sf.net)
# (assimp v3.1.128981410)

mtllib RemEgg.mtl

# vertex positions
v 0.000000 -0.459220 -0.923880
v 0.000001 0.000000 -1.000000
v 0.382683 0.000000 -0.923880
v 0.353553 -0.459220 -0.853553
v 0.000000 0.459220 -0.923880
v 0.000000 0.848528 -0.707107
v 0.270598 0.848528 -0.653281
v 0.353553 0.459220 -0.853553
v 0.000000 1.108655 -0.382683
v 0.000000 1.200000 0.000000
v 0.146447 1.108655 -0.353553
v 0.000000 -1.200000 0.000000
v 0.000000 -1.108655 -0.382683
v 0.146447 -1.108655 -0.353553
v 0.000000 -0.848528 -0.707107
v 0.270598 -0.848528 -0.653281
v 0.270598 -1.108655 -0.270598
v 0.653282 -0.459220 -0.653281
v 0.500000 -0.848528 -0.500000
v 0.653282 0.459220 -0.653281
v 0.707107 0.000000 -0.707107
v 0.270598 1.108655 -0.270598
v 0.500000 0.848528 -0.500000
v 0.353554 1.108655 -0.146447
v 0.653282 0.848528 -0.270598
v 0.653282 -0.848528 -0.270598
v 0.353554 -1.108655 -0.146447
v 0.923880 0.000000 -0.382683
v 0.853554 -0.459220 -0.353553
v 0.853554 0.459220 -0.353553
v 0.707107 -0.848528 0.000000
v 0.382684 -1.108655 0.000000
v 1.000000 0.000000 0.000000
v 0.923880 -0.459220 0.000000
v 0.707107 0.848528 0.000000
v 0.923880 0.459220 0.000000
v 0.382684 1.108655 0.000000
v 0.353553 1.108655 0.146447
v 0.353553 -1.108655 0.146447
v 0.853553 -0.459220 0.353554
v 0.653282 -0.848528 0.270598
v 0.853553 0.459220 0.353554
v 0.923879 0.000000 0.382684
v 0.653282 0.848528 0.270598
v 0.653281 -0.459220 0.653282
v 0.500000 -0.848528 0.500000
v 0.653281 0.459220 0.653282
v 0.707107 0.000000 0.707107
v 0.270598 1.108655 0.270598
v 0.500000 0.848528 0.500000
v 0.270598 -1.108655 0.270598
v 0.270598 -0.848528 0.653282
v 0.146447 -1.108655 0.353554
v 0.382683 0.000000 0.923880
v 0.353553 -0.459220 0.853554
v 0.270598 0.848528 0.653282
v 0.353553 0.459220 0.853554
v 0.146447 1.108655 0.353554
v 0.000000 0.000000 1.000000
v 0.000000 -0.459220 0.923880
v 0.000000 0.848528 0.707107
v 0.000000 0.459220 0.923880
v 0.000000 1.108655 0.382684
v 0.000000 -1.108655 0.382684
v 0.000000 -0.848528 0.707107
v -0.146447 -1.108655 0.353553
v -0.353554 -0.459220 0.853553
v -0.270598 -0.848528 0.653282
v -0.353554 0.459220 0.853553
v -0.382684 0.000000 0.923880
v -0.146447 1.108655 0.353553
v -0.270598 0.848528 0.653282
v -0.653282 0.459220 0.653281
v -0.707107 0.000000 0.707107
v -0.270598 1.108655 0.270598
v -0.500000 0.848528 0.500000
v -0.500000 -0.848528 0.500000
v -0.270598 -1.108655 0.270598
v -0.653282 -0.459220 0.653281
v -0.653282 -0.848528 0.270598
v -0.353553 -1.108655 0.146447
v -0.923880 0.000000 0.382683
v -0.853553 -0.459220 0.353553
v -0.653282 0.848528 0.270598
v -0.853553 0.459220 0.353553
v -0.353553 1.108655 0.146447
v -0.707107 0.848528 0.000000
v -0.923879 0.459220 0.000000
v -0.382683 1.108655 0.000000
v -0.382683 -1.108655 0.000000
v -0.923879 -0.459220 0.000000
v -0.707107 -0.848528 0.000000
v -1.000000 0.000000 0.000000
v -0.353553 -1.108655 -0.146447
v -0.853553 -0.459220 -0.353554
v -0.653281 -0.848528 -0.270598
v -0.853553 0.459220 -0.353554
v -0.923879 0.000000 -0.382684
v -0.353553 1.108655 -0.146447
v -0.653281 0.848528 -0.270598
v -0.270598 1.108655 -0.270598
v -0.500000 0.848528 -0.500000
v -0.500000 -0.848528 -0.500000
v -0.270598 -1.108655 -0.270598
v -0.707106 0.000000 -0.707107
v -0.653281 -0.459220 -0.653282
v -0.653281 0.459220 -0.653282
v -0.270598 -0.848528 -0.653281
v -0.146446 -1.108655 -0.353553
v -0.382683 0.000000 -0.923880
v -0.353553 -0.459220 -0.853553
v -0.270598 0.848528 -0.653281
v -0.353553 0.459220 -0.853553
v -0.146446 1.108655 -0.353553
v -0.035787 1.367509 -1.126867
v -0.049207 1.416840 -1.087550
v -0.030930 1.636151 -1.215674
v -0.022718 1.606897 -1.235536
v -0.035787 1.466172 -1.048233
v -0.022718 1.660019 -1.193197
v -0.012957 1.784577 -1.273997
v -0.014277 1.798766 -1.297715
v -0.012957 1.758331 -1.294914
v 0.000000 1.856083 -1.325542
v 0.000000 1.785060 -1.308639
v 0.000000 1.812473 -1.286791
v 0.012957 1.784577 -1.273997
v 0.014277 1.798766 -1.297715
v 0.012957 1.758331 -1.294914
v 0.060787 0.928278 -0.841920
v 0.083462 1.031391 -0.759739
v 0.096797 0.882757 -0.583872
v 0.070351 0.763394 -0.682316
v 0.060787 1.134504 -0.677559
v 0.070351 1.005177 -0.489616
v 0.060670 0.905726 -0.395635
v 0.075275 0.786993 -0.456672
v 0.060670 0.699270 -0.560180
v 0.001761 0.754454 -0.412107
v 0.001541 0.658575 -0.559020
v 0.001541 0.915411 -0.354323
v -0.057798 0.905726 -0.395635
v -0.072193 0.786993 -0.456672
v -0.057798 0.699270 -0.560180
v -0.060149 0.928278 -0.841920
v 0.000319 0.889611 -0.872737
v 0.000947 0.715843 -0.716902
v -0.068478 0.763394 -0.682316
v 0.000319 1.173171 -0.646742
v 0.000947 1.049671 -0.450843
v -0.060149 1.134503 -0.677559
v -0.068478 1.005177 -0.489616
v 0.035787 1.466172 -1.048233
v 0.000000 1.484671 -1.033489
v 0.000040 1.314988 -0.849583
v 0.048167 1.286531 -0.872263
v -0.048087 1.286531 -0.872263
v 0.000000 1.349010 -1.141611
v 0.000040 1.106303 -1.015904
v -0.048087 1.134760 -0.993224
v 0.035787 1.367509 -1.126867
v 0.048167 1.134760 -0.993224
v 0.049207 1.416840 -1.087550
v 0.066215 1.210646 -0.932744
v -0.094903 0.882757 -0.583872
v -0.082824 1.031391 -0.759739
v 0.030930 1.636151 -1.215674
v 0.022718 1.606897 -1.235536
v 0.022718 1.660020 -1.193198
v 0.000000 1.600102 -1.244405
v 0.000000 1.672200 -1.186943
v -0.066135 1.210646 -0.932744

# UV coordinates
vt 0.750000 0.375000
vt 0.750000 0.500000
vt 0.687500 0.500000
vt 0.687500 0.375000
vt 0.750000 0.625000
vt 0.750000 0.750000
vt 0.687500 0.750000
vt 0.687500 0.625000
vt 0.750000 0.875000
vt 0.718750 1.000000
vt 0.687500 0.875000
vt 0.718750 0.000000
vt 0.750000 0.125000
vt 0.687500 0.125000
vt 0.750000 0.250000
vt 0.687500 0.250000
vt 0.656250 0.000000
vt 0.625000 0.125000
vt 0.625000 0.375000
vt 0.625000 0.250000
vt 0.625000 0.625000
vt 0.625000 0.500000
vt 0.625000 0.875000
vt 0.625000 0.750000
vt 0.656250 1.000000
vt 0.562500 0.875000
vt 0.562500 0.750000
vt 0.562500 0.250000
vt 0.562500 0.125000
vt 0.562500 0.500000
vt 0.562500 0.375000
vt 0.562500 0.625000
vt 0.593750 1.000000
vt 0.593750 0.000000
vt 0.500000 0.250000
vt 0.500000 0.125000
vt 0.500000 0.500000
vt 0.500000 0.375000
vt 0.500000 0.750000
vt 0.500000 0.625000
vt 0.531250 1.000000
vt 0.500000 0.875000
vt 0.531250 0.000000
vt 0.468750 1.000000
vt 0.437500 0.875000
vt 0.468750 0.000000
vt 0.437500 0.125000
vt 0.437500 0.375000
vt 0.437500 0.250000
vt 0.437500 0.625000
vt 0.437500 0.500000
vt 0.437500 0.750000
vt 0.375000 0.375000
vt 0.375000 0.250000
vt 0.375000 0.625000
vt 0.375000 0.500000
vt 0.375000 0.875000
vt 0.375000 0.750000
vt 0.375000 0.125000
vt 0.406250 1.000000
vt 0.406250 0.000000
vt 0.312500 0.250000
vt 0.312500 0.125000
vt 0.312500 0.500000
vt 0.312500 0.375000
vt 0.312500 0.750000
vt 0.312500 0.625000
vt 0.343750 1.000000
vt 0.312500 0.875000
vt 0.343750 0.000000
vt 0.250000 0.500000
vt 0.250000 0.375000
vt 0.250000 0.750000
vt 0.250000 0.625000
vt 0.281250 1.000000
vt 0.250000 0.875000
vt 0.281250 0.000000
vt 0.250000 0.125000
vt 0.250000 0.250000
vt 0.218750 0.000000
vt 0.187500 0.125000
vt 0.187500 0.375000
vt 0.187500 0.250000
vt 0.187500 0.625000
vt 0.187500 0.500000
vt 0.187500 0.875000
vt 0.187500 0.750000
vt 0.218750 1.000000
vt 0.125000 0.625000
vt 0.125000 0.500000
vt 0.125000 0.875000
vt 0.125000 0.750000
vt 0.125000 0.250000
vt 0.125000 0.125000
vt 0.125000 0.375000
vt 0.156250 1.000000
vt 0.156250 0.000000
vt 0.062500 0.250000
vt 0.062500 0.125000
vt 0.062500 0.500000
vt 0.062500 0.375000
vt 0.062500 0.750000
vt 0.062500 0.625000
vt 0.093750 1.000000
vt 0.062500 0.875000
vt 0.093750 0.000000
vt 0.000000 0.750000
vt 0.000000 0.625000
vt 0.031250 1.000000
vt 0.000000 0.875000
vt 0.031250 0.000000
vt 0.000000 0.125000
vt 0.000000 0.375000
vt 0.000000 0.250000
vt 0.000000 0.500000
vt 0.968750 0.000000
vt 1.000000 0.125000
vt 0.937500 0.125000
vt 1.000000 0.250000
vt 1.000000 0.375000
vt 0.937500 0.375000
vt 0.937500 0.250000
vt 1.000000 0.500000
vt 1.000000 0.625000
vt 0.937500 0.625000
vt 0.937500 0.500000
vt 1.000000 0.750000
vt 1.000000 0.875000
vt 0.937500 0.875000
vt 0.937500 0.750000
vt 0.968750 1.000000
vt 0.875000 0.875000
vt 0.875000 0.750000
vt 0.875000 0.250000
vt 0.875000 0.125000
vt 0.875000 0.500000
vt 0.875000 0.375000
vt 0.875000 0.625000
vt 0.906250 1.000000
vt 0.906250 0.000000
vt 0.812500 0.250000
vt 0.812500 0.125000
vt 0.812500 0.500000
vt 0.812500 0.375000
vt 0.812500 0.750000
vt 0.812500 0.625000
vt 0.843750 1.000000
vt 0.812500 0.875000
vt 0.843750 0.000000
vt 0.781250 1.000000
vt 0.781250 0.000000
vt 0.375000 0.187500
vt 0.500000 0.187500
vt 0.500000 0.221354
vt 0.375000 0.218750
vt 0.625000 0.187500
vt 0.625000 0.218750
vt 0.500000 0.276042
vt 0.500000 0.473958
vt 0.375000 0.635417
vt 0.500000 0.635417
vt 0.500000 0.690538
vt 0.375000 0.689236
vt 0.625000 0.635417
vt 0.625000 0.689236
vt 0.500000 0.767361
vt 0.500000 0.876736
vt 0.625000 1.000000
vt 0.500000 1.000000
vt 0.375000 1.000000
vt 0.250000 0.634549
vt 0.250000 0.688585
vt 0.125000 0.687500
vt 0.750000 0.634549
vt 0.750000 0.688585
vt 0.875000 0.687500
vt 0.625000 0.562500
vt 0.750000 0.562500
vt 0.750000 0.594835
vt 0.625000 0.595052
vt 0.875000 0.562500
vt 0.875000 0.593750
vt 0.125000 0.562500
vt 0.250000 0.562500
vt 0.250000 0.594835
vt 0.125000 0.593750
vt 0.375000 0.562500
vt 0.375000 0.595052
vt 0.500000 0.562500
vt 0.500000 0.595052
vt 0.375000 0.000000
vt 0.500000 0.000000
vt 0.500000 0.061632
vt 0.375000 0.062500
vt 0.625000 0.000000
vt 0.625000 0.062500
vt 0.500000 0.116319
vt 0.500000 0.528646
vt 0.375000 0.530599
vt 0.625000 0.530599
vt 0.250000 0.531250
vt 0.125000 0.531250
vt 0.750000 0.531250
vt 0.875000 0.531250
vt 0.500000 0.155382
vt 0.375000 0.156250
vt 0.625000 0.156250

# vertex normals
vn -0.000000 -0.323388 -0.946266
vn 0.000000 0.000000 -1.000000
vn 0.382690 0.000000 -0.923877
vn 0.362113 -0.323411 -0.874231
vn 0.000000 0.323388 -0.946266
vn 0.000000 0.633799 -0.773498
vn 0.296004 0.633809 -0.714610
vn 0.362113 0.323411 -0.874231
vn 0.000000 0.887359 -0.461079
vn 0.000000 1.000000 0.000000
vn 0.176394 0.887368 -0.425985
vn 0.000000 -1.000000 0.000000
vn -0.000000 -0.887359 -0.461079
vn 0.176394 -0.887368 -0.425985
vn -0.000000 -0.633799 -0.773498
vn 0.296004 -0.633809 -0.714610
vn 0.325995 -0.887386 -0.325995
vn 0.669108 -0.323404 -0.669108
vn 0.546927 -0.633831 -0.546927
vn 0.669108 0.323404 -0.669108
vn 0.707107 0.000000 -0.707107
vn 0.325995 0.887386 -0.325995
vn 0.546927 0.633831 -0.546927
vn 0.425985 0.887368 -0.176394
vn 0.714610 0.633809 -0.296004
vn 0.714610 -0.633809 -0.296004
vn 0.425985 -0.887368 -0.176394
vn 0.923877 0.000000 -0.382690
vn 0.874231 -0.323411 -0.362113
vn 0.874231 0.323411 -0.362113
vn 0.773498 -0.633799 0.000000
vn 0.461079 -0.887359 0.000000
vn 1.000000 0.000000 0.000000
vn 0.946266 -0.323388 0.000000
vn 0.773498 0.633799 0.000000
vn 0.946266 0.323388 0.000000
vn 0.461079 0.887359 0.000000
vn 0.425985 0.887368 0.176394
vn 0.425985 -0.887368 0.176394
vn 0.874231 -0.323411 0.362113
vn 0.714610 -0.633809 0.296004
vn 0.874231 0.323411 0.362113
vn 0.923877 0.000000 0.382690
vn 0.714610 0.633809 0.296004
vn 0.669108 -0.323404 0.669108
vn 0.546927 -0.633831 0.546927
vn 0.669108 0.323404 0.669108
vn 0.707107 0.000000 0.707107
vn 0.325995 0.887386 0.325995
vn 0.546927 0.633831 0.546927
vn 0.325995 -0.887386 0.325995
vn 0.296004 -0.633809 0.714610
vn 0.176394 -0.887368 0.425985
vn 0.382690 0.000000 0.923877
vn 0.362113 -0.323411 0.874231
vn 0.296004 0.633809 0.714610
vn 0.362113 0.323411 0.874231
vn 0.176394 0.887368 0.425985
vn 0.000000 0.000000 1.000000
vn 0.000000 -0.323388 0.946266
vn 0.000000 0.633799 0.773498
vn 0.000000 0.323388 0.946266
vn 0.000000 0.887359 0.461079
vn 0.000000 -0.887359 0.461079
vn 0.000000 -0.633799 0.773498
vn -0.176394 -0.887368 0.425985
vn -0.362113 -0.323411 0.874231
vn -0.296004 -0.633809 0.714610
vn -0.362113 0.323411 0.874231
vn -0.382690 0.000000 0.923877
vn -0.176394 0.887368 0.425985
vn -0.296004 0.633809 0.714610
vn -0.669108 0.323404 0.669108
vn -0.707107 0.000000 0.707107
vn -0.325995 0.887386 0.325995
vn -0.546927 0.633831 0.546927
vn -0.546927 -0.633831 0.546927
vn -0.325995 -0.887386 0.325995
vn -0.669108 -0.323404 0.669108
vn -0.714610 -0.633809 0.296004
vn -0.425985 -0.887368 0.176394
vn -0.923877 0.000000 0.382690
vn -0.874231 -0.323411 0.362113
vn -0.714610 0.633809 0.296004
vn -0.874231 0.323411 0.362113
vn -0.425985 0.887368 0.176394
vn -0.773498 0.633799 0.000000
vn -0.946266 0.323388 0.000000
vn -0.461079 0.887359 0.000000
vn -0.461079 -0.887359 -0.000000
vn -0.946266 -0.323388 -0.000000
vn -0.773498 -0.633799 -0.000000
vn -1.000000 -0.000000 -0.000000
vn -0.425985 -0.887368 -0.176394
vn -0.874231 -0.323411 -0.362113
vn -0.714610 -0.633809 -0.296004
vn -0.874231 0.323411 -0.362113
vn -0.923877 -0.000000 -0.382690
vn -0.425985 0.887368 -0.176394
vn -0.714610 0.633809 -0.296004
vn -0.325995 0.887386 -0.325995
vn -0.546927 0.633831 -0.546927
vn -0.546927 -0.633831 -0.546927
vn -0.325995 -0.887386 -0.325995
vn -0.707107 -0.000000 -0.707107
vn -0.669108 -0.323404 -0.669108
vn -0.669108 0.323404 -0.669108
vn -0.296004 -0.633809 -0.714610
vn -0.176394 -0.887368 -0.425985
vn -0.382690 -0.000000 -0.923877
vn -0.362113 -0.323411 -0.874231
vn -0.296004 0.633809 -0.714610
vn -0.362113 0.323411 -0.874231
vn -0.176394 0.887368 -0.425985
vn -0.796368 -0.238790 -0.555678
vn -0.996655 0.043798 -0.068997
vn -0.995621 0.055801 -0.075002
vn -0.757302 -0.214301 -0.616902
vn -0.835624 0.390111 0.386711
vn -0.803680 0.381490 0.456688
vn -0.774968 0.397084 0.491680
vn -0.968201 0.176700 -0.177100
vn -0.731387 -0.193996 -0.653788
vn 0.000000 0.864221 -0.503112
vn -0.000000 -0.210308 -0.977635
vn 0.000000 0.695411 0.718612
vn 0.774968 0.397084 0.491680
vn 0.968201 0.176700 -0.177100
vn 0.731387 -0.193996 -0.653788
vn 0.848303 -0.309001 -0.430001
vn 0.997775 0.037099 -0.055399
vn 0.999544 -0.020801 0.021901
vn 0.850112 -0.435806 -0.295604
vn 0.863976 0.429088 0.263493
vn 0.855989 0.376695 0.354095
vn 0.793951 0.080995 0.602563
vn 0.842102 -0.335701 0.422101
vn 0.789040 -0.610131 0.071804
vn 0.001500 -0.617375 0.786668
vn 0.001300 -0.994906 0.100801
vn 0.001300 0.153394 0.988164
vn -0.792002 0.078100 0.605502
vn -0.839556 -0.338123 0.425228
vn -0.787014 -0.612311 0.075401
vn -0.848763 -0.311087 -0.427582
vn -0.000500 -0.619437 -0.785046
vn -0.000000 -0.819903 -0.572502
vn -0.849993 -0.438796 -0.291497
vn -0.000400 0.830431 0.557121
vn 0.000000 0.738717 0.674016
vn -0.864246 0.426923 0.266114
vn -0.855838 0.373317 0.358016
vn 0.835624 0.390211 0.386611
vn 0.000000 0.677303 0.735704
vn -0.000200 0.773636 0.633630
vn 0.856539 0.412819 0.309714
vn -0.856600 0.412100 0.310500
vn -0.000000 -0.430698 -0.902496
vn -0.000300 -0.517111 -0.855918
vn -0.828053 -0.269785 -0.491472
vn 0.796306 -0.238702 -0.555804
vn 0.827789 -0.269096 -0.492293
vn 0.996643 0.043902 -0.069103
vn 0.997124 0.040901 -0.063802
vn -0.999333 -0.024801 0.026801
vn -0.998023 0.034701 -0.052401
vn 0.995621 0.055801 -0.075002
vn 0.757302 -0.214301 -0.616902
vn 0.803680 0.381490 0.456688
vn -0.000000 -0.360607 -0.932718
vn 0.000000 0.598511 0.801115
vn -0.997220 0.040101 -0.062801

# Mesh
g Egg_Sphere
usemtl EggBody
f 3/3/3 4/4/4 1/1/1 2/2/2
f 7/7/7 8/8/8 5/5/5 6/6/6
f 9/9/9 10/10/10 11/11/11
f 12/12/12 13/13/13 14/14/14
f 4/4/4 16/16/16 15/15/15 1/1/1
f 8/8/8 3/3/3 2/2/2 5/5/5
f 11/11/11 7/7/7 6/6/6 9/9/9
f 16/16/16 14/14/14 13/13/13 15/15/15
f 12/17/12 14/14/14 17/18/17
f 18/19/18 19/20/19 16/16/16 4/4/4
f 20/21/20 21/22/21 3/3/3 8/8/8
f 22/23/22 23/24/23 7/7/7 11/11/11
f 16/16/16 19/20/19 17/18/17 14/14/14
f 21/22/21 18/19/18 4/4/4 3/3/3
f 23/24/23 20/21/20 8/8/8 7/7/7
f 11/11/11 10/25/10 22/23/22
f 25/27/25 23/24/23 22/23/22 24/26/24
f 19/20/19 26/28/26 27/29/27 17/18/17
f 28/30/28 29/31/29 18/19/18 21/22/21
f 25/27/25 30/32/30 20/21/20 23/24/23
f 22/23/22 10/33/10 24/26/24
f 12/34/12 17/18/17 27/29/27
f 18/19/18 29/31/29 26/28/26 19/20/19
f 30/32/30 28/30/28 21/22/21 20/21/20
f 26/28/26 31/35/31 32/36/32 27/29/27
f 28/30/28 33/37/33 34/38/34 29/31/29
f 36/40/36 30/32/30 25/27/25 35/39/35
f 24/26/24 10/41/10 37/42/37
f 12/43/12 27/29/27 32/36/32
f 29/31/29 34/38/34 31/35/31 26/28/26
f 36/40/36 33/37/33 28/30/28 30/32/30
f 35/39/35 25/27/25 24/26/24 37/42/37
f 37/42/37 10/44/10 38/45/38
f 12/46/12 32/36/32 39/47/39
f 34/38/34 40/48/40 41/49/41 31/35/31
f 33/37/33 36/40/36 42/50/42 43/51/43
f 44/52/44 35/39/35 37/42/37 38/45/38
f 31/35/31 41/49/41 39/47/39 32/36/32
f 34/38/34 33/37/33 43/51/43 40/48/40
f 42/50/42 36/40/36 35/39/35 44/52/44
f 41/49/41 40/48/40 45/53/45 46/54/46
f 43/51/43 42/50/42 47/55/47 48/56/48
f 50/58/50 44/52/44 38/45/38 49/57/49
f 41/49/41 46/54/46 51/59/51 39/47/39
f 40/48/40 43/51/43 48/56/48 45/53/45
f 42/50/42 44/52/44 50/58/50 47/55/47
f 38/45/38 10/60/10 49/57/49
f 12/61/12 39/47/39 51/59/51
f 46/54/46 52/62/52 53/63/53 51/59/51
f 45/53/45 48/56/48 54/64/54 55/65/55
f 47/55/47 50/58/50 56/66/56 57/67/57
f 49/57/49 10/68/10 58/69/58
f 12/70/12 51/59/51 53/63/53
f 46/54/46 45/53/45 55/65/55 52/62/52
f 48/56/48 47/55/47 57/67/57 54/64/54
f 50/58/50 49/57/49 58/69/58 56/66/56
f 55/65/55 54/64/54 59/71/59 60/72/60
f 57/67/57 56/66/56 61/73/61 62/74/62
f 58/69/58 10/75/10 63/76/63
f 12/77/12 53/63/53 64/78/64
f 52/62/52 55/65/55 60/72/60 65/79/65
f 54/64/54 57/67/57 62/74/62 59/71/59
f 56/66/56 58/69/58 63/76/63 61/73/61
f 53/63/53 52/62/52 65/79/65 64/78/64
f 12/80/12 64/78/64 66/81/66
f 65/79/65 60/72/60 67/82/67 68/83/68
f 59/71/59 62/74/62 69/84/69 70/85/70
f 61/73/61 63/76/63 71/86/71 72/87/72
f 64/78/64 65/79/65 68/83/68 66/81/66
f 60/72/60 59/71/59 70/85/70 67/82/67
f 62/74/62 61/73/61 72/87/72 69/84/69
f 63/76/63 10/88/10 71/86/71
f 70/85/70 69/84/69 73/89/73 74/90/74
f 71/86/71 75/91/75 76/92/76 72/87/72
f 66/81/66 68/83/68 77/93/77 78/94/78
f 67/82/67 70/85/70 74/90/74 79/95/79
f 69/84/69 72/87/72 76/92/76 73/89/73
f 71/86/71 10/96/10 75/91/75
f 12/97/12 66/81/66 78/94/78
f 68/83/68 67/82/67 79/95/79 77/93/77
f 81/99/81 78/94/78 77/93/77 80/98/80
f 79/95/79 74/90/74 82/100/82 83/101/83
f 76/92/76 84/102/84 85/103/85 73/89/73
f 75/91/75 10/104/10 86/105/86
f 12/106/12 78/94/78 81/99/81
f 77/93/77 79/95/79 83/101/83 80/98/80
f 74/90/74 73/89/73 85/103/85 82/100/82
f 75/91/75 86/105/86 84/102/84 76/92/76
f 84/102/84 87/107/87 88/108/88 85/103/85
f 86/105/86 10/109/10 89/110/89
f 12/111/12 81/99/81 90/112/90
f 92/114/92 80/98/80 83/101/83 91/113/91
f 85/103/85 88/108/88 93/115/93 82/100/82
f 86/105/86 89/110/89 87/107/87 84/102/84
f 90/112/90 81/99/81 80/98/80 92/114/92
f 91/113/91 83/101/83 82/100/82 93/115/93
f 12/116/12 90/117/90 94/118/94
f 96/122/96 92/119/92 91/120/91 95/121/95
f 88/124/88 97/125/97 98/126/98 93/123/93
f 89/128/89 99/129/99 100/130/100 87/127/87
f 94/118/94 90/117/90 92/119/92 96/122/96
f 98/126/98 95/121/95 91/120/91 93/123/93
f 87/127/87 100/130/100 97/125/97 88/124/88
f 89/128/89 10/131/10 99/129/99
f 99/129/99 101/132/101 102/133/102 100/130/100
f 104/135/104 94/118/94 96/122/96 103/134/103
f 105/136/105 106/137/106 95/121/95 98/126/98
f 100/130/100 102/133/102 107/138/107 97/125/97
f 99/129/99 10/139/10 101/132/101
f 12/140/12 94/118/94 104/135/104
f 106/137/106 103/134/103 96/122/96 95/121/95
f 107/138/107 105/136/105 98/126/98 97/125/97
f 108/141/108 109/142/109 104/135/104 103/134/103
f 110/143/110 111/144/111 106/137/106 105/136/105
f 112/145/112 113/146/113 107/138/107 102/133/102
f 101/132/101 10/147/10 114/148/114
f 12/149/12 104/135/104 109/142/109
f 111/144/111 108/141/108 103/134/103 106/137/106
f 113/146/113 110/143/110 105/136/105 107/138/107
f 101/132/101 114/148/114 112/145/112 102/133/102
f 114/148/114 10/150/10 9/9/9
f 12/151/12 109/142/109 13/13/13
f 1/1/1 15/15/15 108/141/108 111/144/111
f 5/5/5 2/2/2 110/143/110 113/146/113
f 9/9/9 6/6/6 112/145/112 114/148/114
f 15/15/15 13/13/13 109/142/109 108/141/108
f 2/2/2 1/1/1 111/144/111 110/143/110
f 6/6/6 5/5/5 113/146/113 112/145/112

# Mesh
g Cube_Cube.001
usemtl Horn
f 117/154/117 118/155/118 115/152/115 116/153/116
f 120/157/120 117/154/117 116/153/116 119/156/119
f 121/20/121 122/158/122 117/154/117 120/157/120
f 122/158/122 123/54/123 118/155/118 117/154/117
f 124/38/124 125/53/125 123/54/123 122/158/122
f 126/19/126 124/38/124 122/158/122 121/20/121
f 127/22/127 128/159/128 124/38/124 126/19/126
f 128/159/128 129/56/129 125/53/125 124/38/124
f 131/161/131 132/162/132 133/163/133 130/160/130
f 132/162/132 131/161/131 134/164/134 135/165/135
f 137/166/137 132/162/132 135/165/135 136/24/136
f 132/162/132 137/166/137 138/58/138 133/163/133
f 138/58/138 137/166/137 139/167/139 140/57/140
f 137/166/137 136/24/136 141/23/141 139/167/139
f 139/167/139 141/23/141 142/168/142 143/169/143
f 140/57/140 139/167/139 143/169/143 144/170/144
f 146/171/146 147/172/147 148/173/148 145/89/145
f 130/160/130 133/163/133 147/172/147 146/171/146
f 133/163/133 138/58/138 140/73/140 147/172/147
f 147/172/147 140/73/140 144/92/144 148/173/148
f 135/165/135 134/164/134 149/174/149 150/175/150
f 150/175/150 149/174/149 151/138/151 152/176/152
f 141/6/141 150/175/150 152/176/152 142/133/142
f 136/24/136 135/165/135 150/175/150 141/6/141
f 156/180/156 153/177/153 154/178/154 155/179/155
f 155/179/155 154/178/154 119/181/119 157/182/157
f 149/174/149 155/179/155 157/182/157 151/138/151
f 134/164/134 156/180/156 155/179/155 149/174/149
f 158/184/158 159/185/159 160/186/160 115/183/115
f 161/187/161 162/188/162 159/185/159 158/184/158
f 162/188/162 130/160/130 146/171/146 159/185/159
f 159/185/159 146/171/146 145/89/145 160/186/160
f 163/189/163 164/190/164 162/188/162 161/187/161
f 164/190/164 163/189/163 153/177/153 156/180/156
f 131/161/131 164/190/164 156/180/156 134/164/134
f 164/190/164 131/161/131 130/160/130 162/188/162
f 148/194/148 144/191/144 143/192/143 165/193/165
f 142/195/142 152/196/152 165/193/165 143/192/143
f 152/196/152 151/18/151 166/197/166 165/193/165
f 145/59/145 148/194/148 165/193/165 166/197/166
f 167/198/167 168/199/168 129/56/129 128/159/128
f 169/200/169 167/198/167 128/159/128 127/22/127
f 153/177/153 163/189/163 167/198/167 169/200/169
f 163/189/163 161/187/161 168/199/168 167/198/167
f 125/71/125 170/201/170 118/202/118 123/90/123
f 129/56/129 168/199/168 170/201/170 125/71/125
f 168/199/168 161/187/161 158/184/158 170/201/170
f 170/201/170 158/184/158 115/183/115 118/202/118
f 169/200/169 127/22/127 126/2/126 171/203/171
f 171/203/171 126/2/126 121/136/121 120/204/120
f 154/178/154 171/203/171 120/204/120 119/181/119
f 153/177/153 169/200/169 171/203/171 154/178/154
f 160/206/160 145/59/145 166/197/166 172/205/172
f 151/18/151 157/207/157 172/205/172 166/197/166
f 157/207/157 119/156/119 116/153/116 172/205/172
f 115/152/115 160/206/160 172/205/172 116/153/116
