# Blender v3.2.0 OBJ File: 'Building.blend'
# www.blender.org
o FloorXGlassShort_Cube.011
v -2.800000 0.100000 -4.925000
v -2.800000 0.100000 -4.875000
v 2.800000 0.100000 -4.925000
v 2.800000 0.100000 -4.875000
v -2.800000 2.100000 -4.925000
v -2.800000 2.100000 -4.875000
v 2.800000 2.100000 -4.925000
v 2.800000 2.100000 -4.875000
vt 0.125000 0.500000
vt 0.125000 0.750000
vt 0.375000 0.750000
vt 0.375000 0.500000
vt 0.625000 0.500000
vt 0.625000 0.750000
vt 0.875000 0.750000
vt 0.875000 0.500000
vn 0.0000 0.0000 -1.0000
vn -0.0000 0.0000 1.0000
s off
f 3/1/1 1/2/1 5/3/1 7/4/1
f 8/5/2 6/6/2 2/7/2 4/8/2
