# Blender v3.2.0 OBJ File: 'Building.blend'
# www.blender.org
o FloorXEntrance_Cube.012
v 2.875000 0.100000 4.700000
v 2.925000 0.100000 4.700000
v 2.875000 0.100000 -4.700000
v 2.925000 0.100000 -4.700000
v 2.875000 2.100000 4.700000
v 2.925000 2.100000 4.700000
v 2.875000 2.100000 -4.700000
v 2.925000 2.100000 -4.700000
v 2.925000 0.100000 1.566667
v 2.925000 0.100000 -1.566667
v 2.925000 2.100000 -1.566667
v 2.925000 2.100000 1.566667
v 2.875000 0.100000 -1.566667
v 2.875000 0.100000 1.566667
v 2.875000 2.100000 1.566667
v 2.875000 2.100000 -1.566667
vt 0.125000 0.666667
vt 0.125000 0.750000
vt 0.375000 0.750000
vt 0.375000 0.666667
vt 0.625000 0.666667
vt 0.625000 0.750000
vt 0.875000 0.750000
vt 0.875000 0.666667
vt 0.625000 0.500000
vt 0.625000 0.583333
vt 0.875000 0.583333
vt 0.875000 0.500000
vt 0.375000 0.583333
vt 0.125000 0.583333
vt 0.125000 0.500000
vt 0.375000 0.500000
vn -1.0000 0.0000 0.0000
vn 1.0000 0.0000 0.0000
vn 0.0000 0.0000 1.0000
vn 0.0000 0.0000 -1.0000
s off
f 14/1/1 1/2/1 5/3/1 15/4/1
f 12/5/2 6/6/2 2/7/2 9/8/2
f 8/9/2 11/10/2 10/11/2 4/12/2
f 16/13/3 13/14/3 10/11/3 11/10/3
f 3/15/1 13/14/1 16/13/1 7/16/1
f 9/8/4 14/1/4 15/4/4 12/5/4
