# Blender v3.2.0 OBJ File: 'CloudLikeTree1.blend'
# www.blender.org
mtllib CloudLikeTree1.mtl
o Cloudlike_Tree_1_Icosphere
v -0.568400 2.426716 0.992947
v -1.185974 2.823695 0.925536
v -1.221107 3.414144 1.243153
v 0.045108 3.798576 1.008670
v -0.892104 3.701867 1.311305
v -0.029111 2.523174 1.340692
v 0.293003 2.665123 1.038451
v 0.064732 2.592188 0.243207
v -1.017775 2.841243 1.328860
v -0.582281 2.546398 0.233086
v -0.771117 2.850936 -0.096152
v 0.272736 3.129491 1.260549
v 0.344293 3.217481 0.359239
v -0.788427 2.986425 1.542699
v -0.285032 3.333539 1.560946
v -0.978704 3.373583 -0.041968
v 0.073393 3.274271 -0.154168
v -0.346831 2.941964 -0.292229
v -0.477552 3.762401 -0.198722
v 0.148266 3.729941 0.216820
v -0.594532 3.941312 0.240895
v 0.038084 2.674804 -1.082449
v 0.302690 2.870488 -0.851611
v -0.104133 2.840822 -0.698955
v -0.319134 2.929968 -1.120542
v -0.055870 2.871227 -1.751341
v 0.358417 2.872667 -1.579859
v 0.106747 3.326668 -0.736124
v -0.234921 3.346573 -0.885206
v -0.230584 3.304337 -1.492344
v 0.108998 3.279479 -1.669816
v 0.398705 3.266260 -1.182513
v 0.062750 3.592668 -1.223470
v 0.480558 2.634059 -0.482535
v 0.864617 2.766805 -0.117247
v 0.253859 2.744691 0.209691
v -0.130914 2.828868 -0.380204
v 0.455757 2.766954 -1.097400
v 0.931850 2.764513 -0.928949
v 0.503883 3.294019 0.175141
v 0.123112 3.292427 -0.028006
v -0.025587 3.225770 -0.731627
v 0.704310 3.231439 -0.823051
v 1.044267 3.189517 -0.481835
v 0.496725 3.592405 -0.504081
v -0.150067 0.050864 0.130848
v -0.200013 1.817695 -0.089948
v -0.150067 0.026100 -0.152205
v -0.200013 1.799622 -0.296519
v 0.134068 0.050864 0.130848
v 0.007347 1.817695 -0.089948
v 0.134068 0.026100 -0.152205
v 0.007347 1.799622 -0.296519
v -0.184320 0.000000 0.000000
v -0.216533 1.933635 -0.208738
v 0.184320 0.000000 0.000000
v 0.013867 1.933635 -0.208738
v -0.284781 2.643780 0.202606
v -0.284781 2.653820 0.387368
v -0.458404 2.653820 0.387368
v -0.458404 2.643780 0.202606
v -0.049274 2.338279 -0.524516
v -0.049274 2.328239 -0.639277
v 0.181126 2.328239 -0.639277
v 0.181126 2.338279 -0.524516
v 0.000000 -0.016064 -0.183619
v -0.101333 1.794663 -0.312220
v 0.000000 0.016065 0.183619
v -0.101333 1.814744 -0.082696
v -0.101333 1.933635 -0.208738
v 0.000000 0.000000 0.000000
v -0.371592 2.653820 0.387368
v -0.371592 2.643780 0.202606
v 0.065926 2.328239 -0.639277
v 0.065926 2.338279 -0.524516
v 0.416186 2.919253 -0.546661
v 0.531386 2.919253 -0.546661
v 0.531386 2.929293 -0.431899
v 0.416186 2.929293 -0.431899
v -0.026521 2.807418 -0.921735
v -0.026521 2.797378 -1.036497
v 0.088679 2.797378 -1.036497
v 0.088679 2.807418 -0.921735
vt 0.578994 0.091003
vt 0.514985 0.000000
vt 0.664629 0.072493
vt 0.664629 0.147784
vt 0.528060 0.213701
vt 0.425388 0.168412
vt 0.213556 0.627947
vt 0.207636 0.699496
vt 0.120970 0.699496
vt 0.644152 0.463682
vt 0.658402 0.526533
vt 0.559390 0.542931
vt 0.000000 0.892427
vt 0.030694 0.810195
vt 0.095904 0.880230
vt 0.064295 0.600051
vt 0.509113 0.322345
vt 0.020770 0.740929
vt 0.108630 0.699496
vt 0.622057 0.728556
vt 0.497672 0.784919
vt 0.514691 0.695992
vt 0.425388 0.383550
vt 0.250444 0.643383
vt 0.409890 0.573461
vt 0.370759 0.764858
vt 0.296203 0.515023
vt 0.425388 0.499842
vt 0.435702 0.299951
vt 0.425388 0.784955
vt 0.255783 0.761620
vt 0.425388 0.712690
vt 0.428327 0.575904
vt 0.170646 0.778839
vt 0.189279 0.892427
vt 0.044283 0.465075
vt 0.113177 0.508225
vt 0.000000 0.524208
vt 0.013881 0.694829
vt 0.593571 0.284925
vt 0.141081 0.476748
vt 0.546286 0.542931
vt 0.622057 0.589136
vt 0.448005 0.284925
vt 0.530069 0.281853
vt 0.658402 0.320887
vt 0.441019 0.027393
vt 0.680798 0.885487
vt 0.731829 0.918511
vt 0.663486 0.950076
vt 0.731829 0.792789
vt 0.622057 0.878677
vt 0.658278 0.768297
vt 0.548016 0.803275
vt 0.548016 0.928910
vt 0.479261 0.860511
vt 0.412610 0.865297
vt 0.337607 0.871389
vt 0.364526 0.787608
vt 0.323176 0.899424
vt 0.337607 0.966189
vt 0.250444 0.935103
vt 0.337607 0.784955
vt 0.260664 0.831500
vt 0.620389 0.929461
vt 0.548016 0.912099
vt 0.598437 0.853729
vt 0.470505 0.784919
vt 0.412610 0.784955
vt 0.549840 0.823696
vt 0.479657 0.946289
vt 0.845239 0.416015
vt 0.935463 0.404760
vt 0.921356 0.461530
vt 0.842277 0.480497
vt 0.935463 0.526237
vt 0.620389 0.784919
vt 0.425388 0.869761
vt 0.713509 0.657125
vt 0.622057 0.653203
vt 0.668036 0.542931
vt 0.701955 0.768297
vt 0.784155 0.581326
vt 0.784155 0.739005
vt 0.000000 0.993616
vt 0.096753 0.892427
vt 0.096753 1.000000
vt 0.937159 0.237208
vt 0.937159 0.355299
vt 0.842277 0.280298
vt 0.922111 0.138082
vt 0.937031 0.228829
vt 0.842277 0.190112
vt 0.937031 0.000000
vt 0.854739 0.074051
vt 0.861776 0.542931
vt 0.930801 0.592399
vt 0.838182 0.631545
vt 0.874010 0.404760
vt 0.851934 0.228829
vt 0.930801 0.714477
vt 0.784155 0.596254
vt 0.784155 0.779401
vt 0.913843 0.714477
vt 0.902776 0.807914
vt 0.803041 0.851587
vt 0.913843 0.904560
vt 0.814473 0.709226
vt 0.232761 0.000000
vt 0.161869 0.328922
vt 0.149030 0.304197
vt 0.205504 0.001526
vt 0.740151 0.479819
vt 0.681471 0.187408
vt 0.700140 0.183854
vt 0.762514 0.468907
vt 0.403913 0.499842
vt 0.335803 0.171806
vt 0.358108 0.189903
vt 0.425388 0.489388
vt 0.821160 0.458461
vt 0.780756 0.163478
vt 0.796493 0.161861
vt 0.842277 0.452404
vt 0.689545 0.511940
vt 0.682494 0.480948
vt 0.705357 0.483734
vt 0.720005 0.504530
vt 0.393741 0.045364
vt 0.425388 0.040676
vt 0.322837 0.196323
vt 0.256026 0.109494
vt 0.275621 0.105927
vt 0.659085 0.519349
vt 0.658402 0.495157
vt 0.377057 0.498185
vt 0.253147 0.010854
vt 0.183799 0.311004
vt 0.735020 0.512627
vt 0.720005 0.512667
vt 0.720005 0.481030
vt 0.735020 0.480989
vt 0.256026 0.465075
vt 0.224813 0.460039
vt 0.762513 0.164765
vt 0.813825 0.002432
vt 0.828051 0.001216
vt 0.750556 0.916789
vt 0.731829 0.910228
vt 0.741058 0.768297
vt 0.755171 0.773241
vt 0.230044 0.568956
vt 0.246318 0.580438
vt 0.246318 0.686821
vt 0.230044 0.675339
vt 0.096221 0.391689
vt 0.076905 0.387907
vt 0.664629 0.187694
vt 0.675135 0.112976
vt 0.694863 0.110843
vt 0.224660 0.860567
vt 0.205218 0.856206
vt 0.189279 0.789878
vt 0.208721 0.794238
vt 0.244103 0.864927
vt 0.228164 0.798599
vt 0.714591 0.108709
vt 0.249510 0.568956
vt 0.230044 0.566046
vt 0.230044 0.465075
vt 0.249510 0.467984
vt 0.769283 0.923349
vt 0.769283 0.778184
vt 0.842277 0.000000
vt 0.750036 0.512586
vt 0.750036 0.480948
vt 0.669271 0.542931
vt 0.696596 0.542931
vt 0.716226 0.531509
vt 0.795716 0.456384
vt 0.713856 0.474169
vt 0.739592 0.512733
vt 0.739592 0.532658
vt 0.720005 0.532593
vt 0.720005 0.512667
vt 0.230044 0.593277
vt 0.213556 0.583943
vt 0.213556 0.465075
vt 0.230044 0.474409
vt 0.742786 0.002134
vt 0.762514 0.000000
vt 0.263957 0.003567
vt 0.283552 0.000000
vt 0.224660 0.699496
vt 0.244103 0.703857
vt 0.239753 0.722954
vt 0.220310 0.718593
vt 0.782214 0.535359
vt 0.762513 0.537905
vt 0.762513 0.461006
vt 0.782214 0.458461
vt 0.019316 0.465075
vt 0.000000 0.461293
vn -0.2514 -0.7591 0.6004
vn -0.5420 -0.7989 0.2608
vn -0.5271 -0.8409 -0.1228
vn 0.0722 -0.9850 -0.1565
vn 0.7195 -0.2738 0.6382
vn -0.8877 -0.2580 0.3814
vn 0.5656 -0.4205 -0.7094
vn 0.4424 -0.1025 0.8910
vn -0.9816 0.0419 -0.1865
vn -0.4067 -0.0671 -0.9111
vn 0.8342 -0.2854 -0.4718
vn -0.7765 0.6080 -0.1657
vn -0.0332 0.9773 0.2094
vn 0.2719 0.9611 -0.0479
vn 0.2513 0.9180 -0.3067
vn -0.6335 0.6431 -0.4303
vn -0.6566 0.7541 -0.0138
vn 0.1486 0.7109 0.6874
vn 0.9221 0.3770 0.0874
vn 0.8737 0.2126 -0.4375
vn 0.4978 0.4969 -0.7108
vn -0.3358 0.0537 -0.9404
vn -0.3879 0.2323 0.8920
vn -0.2208 0.2710 0.9369
vn 0.5455 0.4514 0.7062
vn 0.2050 0.1430 -0.9683
vn -0.8777 -0.3108 -0.3647
vn -0.6385 -0.1127 0.7613
vn 0.1200 -0.2249 0.9670
vn 0.9280 0.3565 0.1085
vn 0.9968 0.0054 0.0797
vn 0.9042 -0.3623 -0.2263
vn 0.0665 -0.8112 -0.5810
vn -0.1285 -0.7637 -0.6327
vn -0.6484 -0.7071 -0.2821
vn 0.3832 -0.9233 -0.0253
vn 0.2034 -0.9781 -0.0441
vn -0.2259 -0.6761 0.7013
vn 0.2344 -0.8574 0.4581
vn 0.5706 -0.8202 0.0412
vn -0.5855 -0.8003 0.1293
vn -0.5625 -0.8113 -0.1592
vn 0.1257 -0.9470 -0.2957
vn 0.9816 -0.1758 0.0746
vn 0.3554 -0.0830 0.9310
vn -0.8945 -0.0687 0.4417
vn -0.9174 -0.1494 -0.3689
vn 0.3822 0.0301 -0.9236
vn 0.8289 0.2266 0.5115
vn -0.3776 0.2325 0.8963
vn -0.9775 0.2098 -0.0216
vn -0.4166 0.3369 -0.8444
vn 0.7974 0.3864 -0.4636
vn 0.6388 0.6981 0.3234
vn -0.1611 0.8601 0.4840
vn -0.6733 0.7373 -0.0561
vn -0.2427 0.7821 -0.5739
vn 0.6680 0.6399 -0.3798
vn 0.1431 -0.9689 0.2017
vn 0.3029 -0.9526 0.0278
vn -0.2946 -0.9540 0.0560
vn -0.3265 -0.9265 -0.1871
vn 0.0705 -0.9744 -0.2135
vn 0.9401 -0.3316 0.0788
vn 0.4704 -0.1595 0.8679
vn -0.8343 0.0395 0.5498
vn -0.7470 -0.3185 -0.5836
vn 0.3137 0.3528 -0.8815
vn 0.7726 0.1932 0.6048
vn -0.4553 0.2608 0.8513
vn -0.9114 0.3805 0.1566
vn -0.1082 0.5479 -0.8296
vn 0.6577 0.4564 -0.5992
vn 0.5505 0.7664 0.3309
vn -0.2143 0.8934 0.3948
vn -0.5877 0.8077 0.0477
vn -0.1018 0.6252 -0.7738
vn 0.5407 0.7098 -0.4514
vn -0.9810 -0.0398 -0.1897
vn 0.2017 -0.0616 -0.9775
vn 0.9633 0.1060 0.2467
vn -0.2151 0.1232 0.9688
vn 0.1430 -0.9631 0.2278
vn 0.9485 0.2921 0.1223
vn 0.9579 -0.2476 0.1452
vn 0.1360 -0.9895 -0.0499
vn 0.9661 0.0534 -0.2526
vn -0.9799 0.0014 0.1997
vn 0.0000 0.9985 -0.0543
vn -0.9579 -0.2831 -0.0466
vn 0.0397 -0.4817 0.8754
vn 0.0000 0.5012 -0.8653
vn 0.9990 -0.0451 0.0039
vn -0.9613 0.1813 -0.2073
vn -0.0746 -0.5158 -0.8534
vn 0.0000 0.6152 0.7884
vn 0.0706 -0.5482 -0.8334
vn -0.8563 0.5145 -0.0450
vn -0.0418 -0.5018 0.8640
vn -0.1289 -0.9907 -0.0428
vn -0.1353 -0.9660 0.2203
vn 0.2161 0.1457 0.9654
vn -0.2006 -0.0828 -0.9762
vn 0.0000 0.9962 -0.0872
vn 0.0000 -0.1548 0.9879
vn 0.0000 0.1548 -0.9879
vn 0.8563 -0.5145 0.0450
vn 0.0000 -0.6462 -0.7632
vn 0.0000 0.6462 0.7632
vn -0.9990 0.0451 -0.0039
usemtl Leaves.003
s off
f 1/1/1 6/2/1 9/3/1
f 1/1/2 9/3/2 2/4/2
f 1/1/3 2/4/3 10/5/3
f 1/1/4 10/5/4 8/6/4
f 6/7/5 7/8/5 12/9/5
f 2/10/6 9/11/6 3/12/6
f 8/13/7 18/14/7 17/15/7
f 6/7/8 12/9/8 15/16/8
f 2/10/9 3/12/9 16/17/9
f 11/18/10 16/19/10 18/14/10
f 8/20/11 17/21/11 13/22/11
f 16/17/12 3/12/12 21/23/12
f 4/24/13 21/25/13 5/26/13
f 4/24/14 20/27/14 21/25/14
f 20/27/15 19/28/15 21/25/15
f 19/29/16 16/17/16 21/23/16
f 21/25/17 3/30/17 5/26/17
f 5/26/18 15/31/18 4/24/18
f 13/22/19 20/32/19 4/33/19
f 13/22/20 17/21/20 20/32/20
f 17/15/21 19/34/21 20/35/21
f 18/14/22 16/19/22 19/34/22
f 3/36/23 14/37/23 5/38/23
f 14/37/24 15/16/24 5/38/24
f 12/9/25 4/39/25 15/16/25
f 17/15/26 18/14/26 19/34/26
f 11/40/27 2/10/27 16/17/27
f 9/41/28 14/37/28 3/36/28
f 14/37/29 6/7/29 15/16/29
f 12/42/30 13/22/30 4/33/30
f 12/42/31 7/43/31 13/22/31
f 7/43/32 8/20/32 13/22/32
f 8/6/33 10/5/33 18/44/33
f 10/5/34 11/45/34 18/44/34
f 10/46/35 2/10/35 11/40/35
f 7/47/36 6/2/36 8/6/36
f 6/2/37 1/1/37 8/6/37
f 9/41/38 6/7/38 14/37/38
f 22/48/39 23/49/39 24/50/39
f 23/49/40 22/48/40 27/51/40
f 22/48/41 24/50/41 25/52/41
f 22/48/42 25/52/42 26/53/42
f 22/48/43 26/53/43 27/51/43
f 23/54/44 27/55/44 32/56/44
f 24/57/45 23/58/45 28/59/45
f 25/60/46 24/61/46 29/62/46
f 26/63/47 25/60/47 30/64/47
f 27/65/48 26/66/48 31/67/48
f 23/54/49 32/56/49 28/68/49
f 24/57/50 28/59/50 29/69/50
f 25/60/51 29/62/51 30/64/51
f 26/66/52 30/70/52 31/67/52
f 27/55/53 31/71/53 32/56/53
f 28/72/54 32/73/54 33/74/54
f 29/75/55 28/72/55 33/74/55
f 30/76/56 29/75/56 33/74/56
f 31/67/57 30/70/57 33/77/57
f 32/56/58 31/71/58 33/78/58
f 34/79/59 35/80/59 36/81/59
f 35/80/60 34/79/60 39/82/60
f 34/79/61 36/81/61 37/83/61
f 34/79/62 37/83/62 38/84/62
f 34/79/63 38/84/63 39/82/63
f 35/85/64 39/86/64 44/87/64
f 36/88/65 35/89/65 40/90/65
f 37/91/66 36/92/66 41/93/66
f 38/94/67 37/91/67 42/95/67
f 39/96/68 38/97/68 43/98/68
f 35/89/69 44/99/69 40/90/69
f 36/88/70 40/90/70 41/100/70
f 37/91/71 41/93/71 42/95/71
f 38/97/72 42/101/72 43/98/72
f 39/96/73 43/98/73 44/102/73
f 40/103/74 44/104/74 45/105/74
f 41/106/75 40/103/75 45/105/75
f 42/107/76 41/106/76 45/105/76
f 43/98/77 42/101/77 45/108/77
f 44/102/78 43/98/78 45/108/78
usemtl Branch.002
f 54/109/79 55/110/79 49/111/79 48/112/79
f 66/113/80 67/114/80 53/115/80 52/116/80
f 56/117/81 57/118/81 51/119/81 50/120/81
f 68/121/82 69/122/82 47/123/82 46/124/82
f 71/125/83 56/126/83 50/127/83 68/128/83
f 51/119/84 57/118/84 58/129/84 59/130/84
f 57/118/85 53/131/85 64/132/85 65/133/85
f 66/134/86 52/135/86 56/126/86 71/125/86
f 52/136/87 53/131/87 57/118/87 56/117/87
f 46/137/88 47/138/88 55/110/88 54/109/88
f 73/139/89 61/140/89 60/141/89 72/142/89
f 55/110/90 47/138/90 60/143/90 61/144/90
f 69/122/91 51/145/91 59/146/91 72/147/91
f 70/148/92 55/149/92 61/150/92 73/151/92
f 75/152/93 74/153/93 82/154/93 83/155/93
f 49/111/94 55/110/94 62/156/94 63/157/94
f 67/114/95 49/158/95 63/159/95 74/160/95
f 70/161/96 57/162/96 65/163/96 75/164/96
f 55/165/96 70/161/96 75/164/96 62/166/96
f 53/115/97 67/114/97 74/160/97 64/167/97
f 74/168/98 75/169/98 79/170/98 76/171/98
f 57/172/92 70/148/92 73/151/92 58/173/92
f 47/123/99 69/122/99 72/147/99 60/174/99
f 58/175/89 73/139/89 72/142/89 59/176/89
f 48/177/100 66/134/100 71/125/100 54/178/100
f 54/178/101 71/125/101 68/128/101 46/179/101
f 50/180/102 51/145/102 69/122/102 68/121/102
f 48/181/103 49/158/103 67/114/103 66/113/103
f 77/182/104 76/183/104 79/184/104 78/185/104
f 75/186/105 65/187/105 78/188/105 79/189/105
f 64/167/106 74/160/106 76/190/106 77/191/106
f 65/133/107 64/132/107 77/192/107 78/193/107
f 82/194/104 81/195/104 80/196/104 83/197/104
f 74/198/108 63/199/108 81/200/108 82/201/108
f 62/166/109 75/164/109 83/197/109 80/196/109
f 63/157/110 62/156/110 80/202/110 81/203/110
