# Blender v3.2.0 OBJ File: 'PodConfigurator.blend'
# www.blender.org
mtllib PodConfigurator.mtl
o PodConfigerMesh_Cube.002
v -0.049920 0.000000 0.049920
v -0.049920 0.270000 0.049920
v -0.049920 0.000000 -0.049920
v -0.049920 0.270000 -0.049920
v 0.049920 0.000000 0.049920
v 0.049920 0.270000 0.049920
v 0.049920 0.000000 -0.049920
v 0.049920 0.270000 -0.049920
v -0.049920 0.395000 0.045920
v -0.049920 0.369160 -0.050518
v 0.049920 0.395000 0.045920
v 0.049920 0.369160 -0.050518
v -0.049920 0.375681 0.051096
v -0.049920 0.349841 -0.045342
v 0.049920 0.375681 0.051096
v 0.049920 0.349841 -0.045342
v -0.029952 0.326250 0.029952
v -0.029952 0.326250 -0.029952
v 0.029952 0.326250 0.029952
v 0.029952 0.326250 -0.029952
v -0.029952 0.316250 0.029952
v -0.029952 0.316250 -0.029952
v 0.029952 0.316250 0.029952
v 0.029952 0.316250 -0.029952
v -0.039936 0.298750 0.039936
v -0.039936 0.298750 -0.039936
v 0.039936 0.298750 0.039936
v 0.039936 0.298750 -0.039936
v -0.039936 0.288750 0.039936
v -0.039936 0.288750 -0.039936
v 0.039936 0.288750 0.039936
v 0.039936 0.288750 -0.039936
v -0.005990 0.372250 0.005990
v -0.005990 0.372250 -0.005990
v 0.005990 0.372250 0.005990
v 0.005990 0.372250 -0.005990
v -0.005990 0.262250 0.005990
v -0.005990 0.262250 -0.005990
v 0.005990 0.262250 0.005990
v 0.005990 0.262250 -0.005990
vt 0.375000 0.000000
vt 0.625000 0.000000
vt 0.625000 0.250000
vt 0.375000 0.250000
vt 0.625000 0.500000
vt 0.375000 0.500000
vt 0.625000 0.750000
vt 0.375000 0.750000
vt 0.625000 1.000000
vt 0.375000 1.000000
vt 0.125000 0.500000
vt 0.125000 0.750000
vt 0.875000 0.500000
vt 0.875000 0.750000
vt 0.625000 0.500000
vt 0.875000 0.500000
vt 0.875000 0.750000
vt 0.625000 0.750000
vt 0.625000 0.500000
vt 0.625000 0.750000
vt 0.875000 0.750000
vt 0.875000 0.500000
vt 0.625000 0.500000
vt 0.875000 0.500000
vt 0.875000 0.750000
vt 0.625000 0.750000
vt 0.625000 0.500000
vt 0.625000 0.750000
vt 0.875000 0.750000
vt 0.875000 0.500000
vt 0.625000 0.500000
vt 0.875000 0.500000
vt 0.875000 0.750000
vt 0.625000 0.750000
vt 0.625000 0.500000
vt 0.625000 0.750000
vt 0.875000 0.750000
vt 0.875000 0.500000
vt 0.625000 0.500000
vt 0.875000 0.500000
vt 0.875000 0.750000
vt 0.625000 0.750000
vt 0.625000 0.500000
vt 0.625000 0.750000
vt 0.875000 0.750000
vt 0.875000 0.500000
vn -1.0000 0.0000 0.0000
vn 0.0000 0.0000 -1.0000
vn 1.0000 0.0000 0.0000
vn 0.0000 0.0000 1.0000
vn 0.0000 -1.0000 0.0000
vn 0.0000 1.0000 0.0000
vn 0.0000 0.9659 -0.2588
vn 0.0000 -0.9659 0.2588
vn 0.0000 0.2588 0.9659
vn 0.0000 -0.2588 -0.9659
usemtl Material
s off
f 1/1/1 2/2/1 4/3/1 3/4/1
f 3/4/2 4/3/2 8/5/2 7/6/2
f 7/6/3 8/5/3 6/7/3 5/8/3
f 5/8/4 6/7/4 2/9/4 1/10/4
f 3/11/5 7/6/5 5/8/5 1/12/5
f 8/5/6 4/13/6 2/14/6 6/7/6
usemtl Material.001
f 20/15/6 18/16/6 17/17/6 19/18/6
f 24/19/5 23/20/5 21/21/5 22/22/5
f 17/17/4 21/21/4 23/20/4 19/18/4
f 20/15/2 24/19/2 22/22/2 18/16/2
f 19/18/3 23/20/3 24/19/3 20/15/3
f 18/16/1 22/22/1 21/21/1 17/17/1
f 28/23/6 26/24/6 25/25/6 27/26/6
f 32/27/5 31/28/5 29/29/5 30/30/5
f 25/25/4 29/29/4 31/28/4 27/26/4
f 28/23/2 32/27/2 30/30/2 26/24/2
f 27/26/3 31/28/3 32/27/3 28/23/3
f 26/24/1 30/30/1 29/29/1 25/25/1
usemtl Material.002
f 36/31/6 34/32/6 33/33/6 35/34/6
f 40/35/5 39/36/5 37/37/5 38/38/5
f 33/33/4 37/37/4 39/36/4 35/34/4
f 36/31/2 40/35/2 38/38/2 34/32/2
f 35/34/3 39/36/3 40/35/3 36/31/3
f 34/32/1 38/38/1 37/37/1 33/33/1
usemtl Material.003
f 12/39/7 10/40/7 9/41/7 11/42/7
f 16/43/8 15/44/8 13/45/8 14/46/8
f 9/41/9 13/45/9 15/44/9 11/42/9
f 12/39/10 16/43/10 14/46/10 10/40/10
f 11/42/3 15/44/3 16/43/3 12/39/3
f 10/40/1 14/46/1 13/45/1 9/41/1
