# Blender v3.2.0 OBJ File: 'WaifuPodPlaceholder.blend'
# www.blender.org
mtllib WaifuPodPlaceholder.mtl
o Circle_Circle.001
v 0.000000 0.000000 -0.200000
v -0.039018 0.000000 -0.196157
v -0.076537 0.000000 -0.184776
v -0.111114 0.000000 -0.166294
v -0.141421 0.000000 -0.141421
v -0.166294 0.000000 -0.111114
v -0.184776 0.000000 -0.076537
v -0.196157 0.000000 -0.039018
v -0.200000 0.000000 0.000000
v -0.196157 0.000000 0.039018
v -0.184776 0.000000 0.076537
v -0.166294 0.000000 0.111114
v -0.141421 0.000000 0.141421
v -0.111114 0.000000 0.166294
v -0.076537 0.000000 0.184776
v -0.039018 0.000000 0.196157
v 0.000000 0.000000 0.200000
v 0.039018 0.000000 0.196157
v 0.076537 0.000000 0.184776
v 0.111114 0.000000 0.166294
v 0.141421 0.000000 0.141421
v 0.166294 0.000000 0.111114
v 0.184776 0.000000 0.076537
v 0.196157 0.000000 0.039018
v 0.200000 0.000000 -0.000000
v 0.196157 0.000000 -0.039018
v 0.184776 0.000000 -0.076537
v 0.166294 0.000000 -0.111114
v 0.141421 0.000000 -0.141421
v 0.111114 0.000000 -0.166294
v 0.076537 0.000000 -0.184776
v 0.039018 0.000000 -0.196157
v 0.000000 0.015000 -0.189952
v -0.037058 0.015000 -0.186302
v -0.072691 0.015000 -0.175492
v -0.105531 0.015000 -0.157939
v -0.134316 0.015000 -0.134316
v -0.157939 0.015000 -0.105531
v -0.175492 0.015000 -0.072691
v -0.186302 0.015000 -0.037058
v -0.189952 0.015000 0.000000
v -0.186302 0.015000 0.037058
v -0.175492 0.015000 0.072691
v -0.157939 0.015000 0.105531
v -0.134316 0.015000 0.134316
v -0.105531 0.015000 0.157939
v -0.072691 0.015000 0.175492
v -0.037058 0.015000 0.186302
v 0.000000 0.015000 0.189952
v 0.037058 0.015000 0.186302
v 0.072691 0.015000 0.175492
v 0.105531 0.015000 0.157939
v 0.134316 0.015000 0.134316
v 0.157939 0.015000 0.105531
v 0.175492 0.015000 0.072691
v 0.186302 0.015000 0.037058
v 0.189952 0.015000 -0.000000
v 0.186302 0.015000 -0.037058
v 0.175492 0.015000 -0.072691
v 0.157939 0.015000 -0.105531
v 0.134316 0.015000 -0.134316
v 0.105531 0.015000 -0.157939
v 0.072691 0.015000 -0.175492
v 0.037058 0.015000 -0.186302
v 0.166294 0.007500 -0.111114
v 0.184776 0.007500 -0.076537
v -0.076537 0.007500 0.184776
v -0.111114 0.007500 0.166294
v -0.039018 0.007500 -0.196157
v 0.000000 0.007500 -0.200000
v 0.141421 0.007500 -0.141421
v -0.039018 0.007500 0.196157
v -0.076537 0.007500 -0.184776
v 0.111114 0.007500 -0.166294
v 0.000000 0.007500 0.200000
v -0.111114 0.007500 -0.166294
v 0.076537 0.007500 -0.184776
v 0.039018 0.007500 0.196157
v -0.141421 0.007500 -0.141421
v 0.039018 0.007500 -0.196157
v 0.076537 0.007500 0.184776
v -0.166294 0.007500 -0.111114
v 0.111114 0.007500 0.166294
v -0.184776 0.007500 -0.076537
v 0.141421 0.007500 0.141421
v -0.196157 0.007500 -0.039018
v 0.166294 0.007500 0.111114
v -0.200000 0.007500 0.000000
v 0.184776 0.007500 0.076537
v -0.196157 0.007500 0.039018
v 0.196157 0.007500 0.039018
v -0.184776 0.007500 0.076537
v 0.200000 0.007500 -0.000000
v -0.166294 0.007500 0.111114
v 0.196157 0.007500 -0.039018
v -0.141421 0.007500 0.141421
v -0.039018 0.011414 -0.196157
v -0.038081 0.015000 -0.191445
v -0.038744 0.013950 -0.194777
v 0.000000 0.015000 -0.195196
v 0.000000 0.011414 -0.200000
v 0.000000 0.013950 -0.198593
v -0.076537 0.011414 -0.184776
v -0.074698 0.015000 -0.180337
v -0.075998 0.013950 -0.183476
v -0.111114 0.011414 -0.166294
v -0.108445 0.015000 -0.162299
v -0.110332 0.013950 -0.165124
v -0.141421 0.011414 -0.141421
v -0.138024 0.015000 -0.138024
v -0.140426 0.013950 -0.140426
v -0.166294 0.011414 -0.111114
v -0.162299 0.015000 -0.108445
v -0.165124 0.013950 -0.110332
v -0.184776 0.011414 -0.076537
v -0.180337 0.015000 -0.074698
v -0.183476 0.013950 -0.075998
v -0.196157 0.011414 -0.039018
v -0.191445 0.015000 -0.038081
v -0.194777 0.013950 -0.038744
v -0.200000 0.011414 0.000000
v -0.195196 0.015000 0.000000
v -0.198593 0.013950 0.000000
v -0.196157 0.011414 0.039018
v -0.191445 0.015000 0.038081
v -0.194777 0.013950 0.038744
v -0.184776 0.011414 0.076537
v -0.180337 0.015000 0.074698
v -0.183476 0.013950 0.075998
v -0.166294 0.011414 0.111114
v -0.162299 0.015000 0.108445
v -0.165124 0.013950 0.110332
v -0.141421 0.011414 0.141421
v -0.138024 0.015000 0.138024
v -0.140426 0.013950 0.140426
v -0.111114 0.011414 0.166294
v -0.108445 0.015000 0.162299
v -0.110332 0.013950 0.165124
v -0.076537 0.011414 0.184776
v -0.074698 0.015000 0.180337
v -0.075998 0.013950 0.183476
v -0.039018 0.011414 0.196157
v -0.038081 0.015000 0.191445
v -0.038744 0.013950 0.194777
v 0.000000 0.011414 0.200000
v 0.000000 0.015000 0.195196
v 0.000000 0.013950 0.198593
v 0.039018 0.011414 0.196157
v 0.038081 0.015000 0.191445
v 0.038744 0.013950 0.194777
v 0.076537 0.011414 0.184776
v 0.074698 0.015000 0.180337
v 0.075998 0.013950 0.183476
v 0.111114 0.011414 0.166294
v 0.108445 0.015000 0.162299
v 0.110332 0.013950 0.165124
v 0.141421 0.011414 0.141421
v 0.138024 0.015000 0.138024
v 0.140426 0.013950 0.140426
v 0.166294 0.011414 0.111114
v 0.162299 0.015000 0.108445
v 0.165124 0.013950 0.110332
v 0.184776 0.011414 0.076537
v 0.180337 0.015000 0.074698
v 0.183476 0.013950 0.075998
v 0.196157 0.011414 0.039018
v 0.191445 0.015000 0.038081
v 0.194777 0.013950 0.038744
v 0.200000 0.011414 -0.000000
v 0.195196 0.015000 -0.000000
v 0.198593 0.013950 -0.000000
v 0.196157 0.011414 -0.039018
v 0.191445 0.015000 -0.038081
v 0.194777 0.013950 -0.038744
v 0.184776 0.011414 -0.076537
v 0.180337 0.015000 -0.074698
v 0.183476 0.013950 -0.075998
v 0.166294 0.011414 -0.111114
v 0.162299 0.015000 -0.108445
v 0.165124 0.013950 -0.110332
v 0.141421 0.011414 -0.141421
v 0.138024 0.015000 -0.138024
v 0.140426 0.013950 -0.140426
v 0.111114 0.011414 -0.166294
v 0.108445 0.015000 -0.162299
v 0.110332 0.013950 -0.165124
v 0.076537 0.011414 -0.184776
v 0.074698 0.015000 -0.180337
v 0.075998 0.013950 -0.183476
v 0.039018 0.011414 -0.196157
v 0.038081 0.015000 -0.191445
v 0.038744 0.013950 -0.194777
vt 0.500000 1.000000
vt 0.597545 0.990393
vt 0.691342 0.961940
vt 0.777785 0.915735
vt 0.853553 0.853553
vt 0.915735 0.777785
vt 0.961940 0.691342
vt 0.990393 0.597545
vt 1.000000 0.500000
vt 0.990393 0.402455
vt 0.961940 0.308658
vt 0.915735 0.222215
vt 0.853553 0.146447
vt 0.777785 0.084265
vt 0.691342 0.038060
vt 0.597545 0.009607
vt 0.500000 0.000000
vt 0.402455 0.009607
vt 0.308658 0.038060
vt 0.222215 0.084265
vt 0.146447 0.146447
vt 0.084265 0.222215
vt 0.038060 0.308658
vt 0.009607 0.402455
vt 0.000000 0.500000
vt 0.009607 0.597545
vt 0.038060 0.691342
vt 0.084265 0.777785
vt 0.146447 0.853553
vt 0.222215 0.915735
vt 0.308658 0.961940
vt 0.402455 0.990393
vt 0.500000 0.974880
vt 0.407356 0.965755
vt 0.318272 0.938731
vt 0.236171 0.894848
vt 0.164210 0.835790
vt 0.105153 0.763829
vt 0.061269 0.681729
vt 0.034246 0.592644
vt 0.025121 0.500000
vt 0.034246 0.407356
vt 0.061269 0.318272
vt 0.105153 0.236171
vt 0.164210 0.164210
vt 0.236171 0.105153
vt 0.318272 0.061269
vt 0.407356 0.034246
vt 0.500000 0.025121
vt 0.592644 0.034246
vt 0.681728 0.061269
vt 0.763829 0.105153
vt 0.835790 0.164210
vt 0.894848 0.236171
vt 0.938731 0.318272
vt 0.965754 0.407356
vt 0.974879 0.500000
vt 0.965754 0.592644
vt 0.938731 0.681728
vt 0.894848 0.763829
vt 0.835790 0.835790
vt 0.763829 0.894848
vt 0.681728 0.938731
vt 0.592644 0.965755
vt 0.222215 0.084265
vt 0.146447 0.146447
vt 0.961940 0.691342
vt 0.990393 0.597545
vt 0.084265 0.222215
vt 1.000000 0.500000
vt 0.038060 0.308658
vt 0.990393 0.402455
vt 0.009607 0.402455
vt 0.961940 0.308658
vt 0.000000 0.500000
vt 0.915735 0.222215
vt 0.009607 0.597545
vt 0.853553 0.146447
vt 0.038060 0.691342
vt 0.777785 0.084265
vt 0.084265 0.777785
vt 0.691342 0.038060
vt 0.500000 1.000000
vt 0.597545 0.990393
vt 0.146447 0.853553
vt 0.597545 0.009607
vt 0.691342 0.961940
vt 0.222215 0.915735
vt 0.500000 0.000000
vt 0.777785 0.915735
vt 0.308658 0.961940
vt 0.402455 0.009607
vt 0.853553 0.853553
vt 0.402455 0.990393
vt 0.308658 0.038060
vt 0.915735 0.777785
vt 0.905748 0.771112
vt 0.845061 0.845060
vt 0.313255 0.049157
vt 0.404798 0.021387
vt 0.404798 0.978613
vt 0.313255 0.950843
vt 0.771112 0.905748
vt 0.500000 0.012011
vt 0.595202 0.978613
vt 0.500000 0.987990
vt 0.686745 0.950843
vt 0.595202 0.021387
vt 0.228888 0.905748
vt 0.154940 0.845061
vt 0.686745 0.049157
vt 0.094252 0.771112
vt 0.771112 0.094252
vt 0.049157 0.686746
vt 0.845060 0.154940
vt 0.021387 0.595202
vt 0.905748 0.228888
vt 0.012011 0.500000
vt 0.950843 0.313255
vt 0.021387 0.404798
vt 0.978613 0.404798
vt 0.049157 0.313255
vt 0.987989 0.500000
vt 0.094252 0.228888
vt 0.978613 0.595202
vt 0.154940 0.154940
vt 0.950843 0.686746
vt 0.228888 0.094252
vt 0.402455 0.990393
vt 0.500000 1.000000
vt 0.308658 0.961940
vt 0.222215 0.915735
vt 0.146447 0.853553
vt 0.084265 0.777785
vt 0.038060 0.691342
vt 0.009607 0.597545
vt 0.000000 0.500000
vt 0.009607 0.402455
vt 0.038060 0.308658
vt 0.084265 0.222215
vt 0.146447 0.146447
vt 0.222215 0.084265
vt 0.308658 0.038060
vt 0.402455 0.009607
vt 0.500000 0.000000
vt 0.597545 0.009607
vt 0.691342 0.038060
vt 0.777785 0.084265
vt 0.853553 0.146447
vt 0.915735 0.222215
vt 0.961940 0.308658
vt 0.990393 0.402455
vt 1.000000 0.500000
vt 0.990393 0.597545
vt 0.961940 0.691342
vt 0.915735 0.777785
vt 0.853553 0.853553
vt 0.777785 0.915735
vt 0.691342 0.961940
vt 0.597545 0.990393
vt 0.500000 0.999966
vt 0.402461 0.990359
vt 0.308671 0.961909
vt 0.222234 0.915707
vt 0.146471 0.853529
vt 0.084293 0.777766
vt 0.038091 0.691329
vt 0.009641 0.597539
vt 0.000034 0.500000
vt 0.009641 0.402461
vt 0.038091 0.308671
vt 0.084293 0.222234
vt 0.146471 0.146471
vt 0.222234 0.084293
vt 0.308671 0.038091
vt 0.402461 0.009640
vt 0.500000 0.000034
vt 0.597539 0.009640
vt 0.691329 0.038091
vt 0.777766 0.084293
vt 0.853529 0.146470
vt 0.915707 0.222234
vt 0.961909 0.308671
vt 0.990360 0.402461
vt 0.999966 0.500000
vt 0.990359 0.597539
vt 0.961908 0.691329
vt 0.915707 0.777766
vt 0.853529 0.853529
vt 0.777766 0.915707
vt 0.691329 0.961909
vt 0.597539 0.990360
vn -0.0000 -0.6857 -0.7279
vn 0.1420 -0.6857 -0.7139
vn 0.2786 -0.6857 -0.6725
vn 0.4044 -0.6857 -0.6052
vn 0.5147 -0.6857 -0.5147
vn 0.6052 -0.6857 -0.4044
vn 0.6725 -0.6857 -0.2786
vn 0.7139 -0.6857 -0.1420
vn 0.7279 -0.6857 -0.0000
vn 0.7139 -0.6857 0.1420
vn 0.6725 -0.6857 0.2786
vn 0.6052 -0.6857 0.4044
vn 0.5147 -0.6857 0.5147
vn 0.4044 -0.6857 0.6052
vn 0.2786 -0.6857 0.6725
vn 0.1420 -0.6857 0.7139
vn 0.0000 -0.6857 0.7279
vn -0.1420 -0.6857 0.7139
vn -0.2786 -0.6857 0.6725
vn -0.4044 -0.6857 0.6052
vn -0.5147 -0.6857 0.5147
vn -0.6052 -0.6857 0.4044
vn -0.6725 -0.6857 0.2786
vn -0.7139 -0.6857 0.1420
vn -0.7279 -0.6857 0.0000
vn -0.7139 -0.6857 -0.1420
vn -0.6725 -0.6857 -0.2786
vn -0.6052 -0.6857 -0.4044
vn -0.5147 -0.6857 -0.5147
vn -0.4044 -0.6857 -0.6052
vn -0.2786 -0.6857 -0.6725
vn -0.1420 -0.6857 -0.7139
vn 0.0000 1.0000 0.0000
vn -0.5556 0.0000 0.8315
vn -0.7071 0.0000 0.7071
vn 0.9239 0.0000 -0.3827
vn 0.9808 0.0000 -0.1951
vn -0.8315 0.0000 0.5556
vn 1.0000 0.0000 -0.0000
vn -0.9239 0.0000 0.3827
vn 0.9808 0.0000 0.1951
vn -0.9808 0.0000 0.1951
vn 0.9239 0.0000 0.3827
vn -1.0000 0.0000 0.0000
vn 0.8315 0.0000 0.5556
vn -0.9808 0.0000 -0.1951
vn 0.7071 0.0000 0.7071
vn -0.9239 0.0000 -0.3827
vn 0.5556 0.0000 0.8315
vn -0.8315 0.0000 -0.5556
vn 0.3827 0.0000 0.9239
vn -0.0000 0.0000 -1.0000
vn 0.1951 0.0000 -0.9808
vn -0.7071 0.0000 -0.7071
vn 0.1951 0.0000 0.9808
vn 0.3827 0.0000 -0.9239
vn -0.5556 0.0000 -0.8315
vn 0.0000 0.0000 1.0000
vn 0.5556 0.0000 -0.8315
vn -0.3827 0.0000 -0.9239
vn -0.1951 0.0000 0.9808
vn 0.7071 0.0000 -0.7071
vn -0.1951 0.0000 -0.9808
vn -0.3827 0.0000 0.9239
vn 0.8315 0.0000 -0.5556
vn 0.1318 0.9874 -0.0880
vn 0.1120 0.9874 -0.1120
vn -0.0606 0.9874 0.1464
vn -0.0309 0.9874 0.1554
vn -0.0309 0.9874 -0.1554
vn -0.0606 0.9874 -0.1464
vn 0.0880 0.9874 -0.1318
vn 0.0000 0.9874 0.1585
vn 0.0309 0.9874 -0.1554
vn -0.0000 0.9874 -0.1585
vn 0.0606 0.9874 -0.1464
vn 0.0309 0.9874 0.1554
vn -0.0880 0.9874 -0.1318
vn -0.1120 0.9874 -0.1120
vn 0.0606 0.9874 0.1464
vn -0.1318 0.9874 -0.0880
vn 0.0880 0.9874 0.1318
vn -0.1464 0.9874 -0.0606
vn 0.1120 0.9874 0.1120
vn -0.1554 0.9874 -0.0309
vn 0.1318 0.9874 0.0880
vn -0.1585 0.9874 -0.0000
vn 0.1464 0.9874 0.0606
vn -0.1554 0.9874 0.0309
vn 0.1554 0.9874 0.0309
vn -0.1464 0.9874 0.0606
vn 0.1585 0.9874 -0.0000
vn -0.1318 0.9874 0.0880
vn 0.1554 0.9874 -0.0309
vn -0.1120 0.9874 0.1120
vn 0.1464 0.9874 -0.0606
vn -0.0880 0.9874 0.1318
vn -0.1891 0.2469 -0.9504
vn -0.0000 0.2469 -0.9690
vn -0.3708 0.2469 -0.8953
vn -0.5384 0.2469 -0.8057
vn -0.6852 0.2469 -0.6852
vn -0.8057 0.2469 -0.5384
vn -0.8953 0.2469 -0.3708
vn -0.9504 0.2469 -0.1891
vn -0.9690 0.2469 0.0000
vn -0.9504 0.2469 0.1891
vn -0.8953 0.2469 0.3708
vn -0.8057 0.2469 0.5384
vn -0.6852 0.2469 0.6852
vn -0.5384 0.2469 0.8057
vn -0.3708 0.2469 0.8953
vn -0.1891 0.2469 0.9504
vn 0.0000 0.2469 0.9690
vn 0.1891 0.2469 0.9504
vn 0.3708 0.2469 0.8953
vn 0.5384 0.2469 0.8057
vn 0.6852 0.2469 0.6852
vn 0.8057 0.2469 0.5384
vn 0.8953 0.2469 0.3708
vn 0.9504 0.2469 0.1891
vn 0.9690 0.2469 0.0000
vn 0.9504 0.2469 -0.1891
vn 0.8953 0.2469 -0.3708
vn 0.8057 0.2469 -0.5384
vn 0.6852 0.2469 -0.6852
vn 0.5384 0.2469 -0.8057
vn 0.3708 0.2469 -0.8953
vn 0.1891 0.2469 -0.9504
vn -0.0000 0.7650 -0.6440
vn -0.1256 0.7650 -0.6316
vn -0.2464 0.7650 -0.5950
vn -0.3578 0.7650 -0.5355
vn -0.4554 0.7650 -0.4554
vn -0.5355 0.7650 -0.3578
vn -0.5950 0.7650 -0.2464
vn -0.6316 0.7650 -0.1256
vn -0.6440 0.7650 -0.0000
vn -0.6316 0.7650 0.1256
vn -0.5950 0.7650 0.2464
vn -0.5355 0.7650 0.3578
vn -0.4554 0.7650 0.4554
vn -0.3578 0.7650 0.5355
vn -0.2464 0.7650 0.5950
vn -0.1256 0.7650 0.6316
vn 0.0000 0.7650 0.6440
vn 0.1256 0.7650 0.6316
vn 0.2464 0.7650 0.5950
vn 0.3578 0.7650 0.5355
vn 0.4554 0.7650 0.4554
vn 0.5355 0.7650 0.3578
vn 0.5950 0.7650 0.2464
vn 0.6316 0.7650 0.1256
vn 0.6440 0.7650 0.0000
vn 0.6316 0.7650 -0.1256
vn 0.5950 0.7650 -0.2464
vn 0.5355 0.7650 -0.3578
vn 0.4554 0.7650 -0.4554
vn 0.3578 0.7650 -0.5355
vn 0.2464 0.7650 -0.5950
vn 0.1256 0.7650 -0.6316
usemtl Material
s 1
f 1/1/1 32/2/2 31/3/3 30/4/4 29/5/5 28/6/6 27/7/7 26/8/8 25/9/9 24/10/10 23/11/11 22/12/12 21/13/13 20/14/14 19/15/15 18/16/16 17/17/17 16/18/18 15/19/19 14/20/20 13/21/21 12/22/22 11/23/23 10/24/24 9/25/25 8/26/26 7/27/27 6/28/28 5/29/29 4/30/30 3/31/31 2/32/32
f 33/33/33 34/34/33 35/35/33 36/36/33 37/37/33 38/38/33 39/39/33 40/40/33 41/41/33 42/42/33 43/43/33 44/44/33 45/45/33 46/46/33 47/47/33 48/48/33 49/49/33 50/50/33 51/51/33 52/52/33 53/53/33 54/54/33 55/55/33 56/56/33 57/57/33 58/58/33 59/59/33 60/60/33 61/61/33 62/62/33 63/63/33 64/64/33
f 13/21/21 14/20/20 68/65/34 96/66/35
f 26/8/8 27/7/7 66/67/36 95/68/37
f 12/22/22 13/21/21 96/66/35 94/69/38
f 25/9/9 26/8/8 95/68/37 93/70/39
f 11/23/23 12/22/22 94/69/38 92/71/40
f 24/10/10 25/9/9 93/70/39 91/72/41
f 10/24/24 11/23/23 92/71/40 90/73/42
f 23/11/11 24/10/10 91/72/41 89/74/43
f 9/25/25 10/24/24 90/73/42 88/75/44
f 22/12/12 23/11/11 89/74/43 87/76/45
f 8/26/26 9/25/25 88/75/44 86/77/46
f 21/13/13 22/12/12 87/76/45 85/78/47
f 7/27/27 8/26/26 86/77/46 84/79/48
f 20/14/14 21/13/13 85/78/47 83/80/49
f 6/28/28 7/27/27 84/79/48 82/81/50
f 19/15/15 20/14/14 83/80/49 81/82/51
f 32/2/2 1/1/1 70/83/52 80/84/53
f 5/29/29 6/28/28 82/81/50 79/85/54
f 18/16/16 19/15/15 81/82/51 78/86/55
f 31/3/3 32/2/2 80/84/53 77/87/56
f 4/30/30 5/29/29 79/85/54 76/88/57
f 17/17/17 18/16/16 78/86/55 75/89/58
f 30/4/4 31/3/3 77/87/56 74/90/59
f 3/31/31 4/30/30 76/88/57 73/91/60
f 16/18/18 17/17/17 75/89/58 72/92/61
f 29/5/5 30/4/4 74/90/59 71/93/62
f 2/32/32 3/31/31 73/91/60 69/94/63
f 15/19/19 16/18/18 72/92/61 67/95/64
f 28/6/6 29/5/5 71/93/62 65/96/65
f 1/1/1 2/32/32 69/94/63 70/83/52
f 14/20/20 15/19/19 67/95/64 68/65/34
f 27/7/7 28/6/6 65/96/65 66/67/36
usemtl Material.001
f 61/61/33 60/60/33 179/97/66 182/98/67
f 48/48/33 47/47/33 140/99/68 143/100/69
f 35/35/33 34/34/33 98/101/70 104/102/71
f 62/62/33 61/61/33 182/98/67 185/103/72
f 49/49/33 48/48/33 143/100/69 146/104/73
f 33/33/33 64/64/33 191/105/74 100/106/75
f 63/63/33 62/62/33 185/103/72 188/107/76
f 50/50/33 49/49/33 146/104/73 149/108/77
f 37/37/33 36/36/33 107/109/78 110/110/79
f 64/64/33 63/63/33 188/107/76 191/105/74
f 51/51/33 50/50/33 149/108/77 152/111/80
f 38/38/33 37/37/33 110/110/79 113/112/81
f 52/52/33 51/51/33 152/111/80 155/113/82
f 39/39/33 38/38/33 113/112/81 116/114/83
f 36/36/33 35/35/33 104/102/71 107/109/78
f 53/53/33 52/52/33 155/113/82 158/115/84
f 40/40/33 39/39/33 116/114/83 119/116/85
f 54/54/33 53/53/33 158/115/84 161/117/86
f 41/41/33 40/40/33 119/116/85 122/118/87
f 55/55/33 54/54/33 161/117/86 164/119/88
f 42/42/33 41/41/33 122/118/87 125/120/89
f 56/56/33 55/55/33 164/119/88 167/121/90
f 43/43/33 42/42/33 125/120/89 128/122/91
f 57/57/33 56/56/33 167/121/90 170/123/92
f 44/44/33 43/43/33 128/122/91 131/124/93
f 58/58/33 57/57/33 170/123/92 173/125/94
f 45/45/33 44/44/33 131/124/93 134/126/95
f 59/59/33 58/58/33 173/125/94 176/127/96
f 46/46/33 45/45/33 134/126/95 137/128/97
f 60/60/33 59/59/33 176/127/96 179/97/66
f 47/47/33 46/46/33 137/128/97 140/99/68
f 70/83/52 69/94/63 97/129/98 101/130/99
f 69/94/63 73/91/60 103/131/100 97/129/98
f 73/91/60 76/88/57 106/132/101 103/131/100
f 76/88/57 79/85/54 109/133/102 106/132/101
f 79/85/54 82/81/50 112/134/103 109/133/102
f 82/81/50 84/79/48 115/135/104 112/134/103
f 84/79/48 86/77/46 118/136/105 115/135/104
f 86/77/46 88/75/44 121/137/106 118/136/105
f 88/75/44 90/73/42 124/138/107 121/137/106
f 90/73/42 92/71/40 127/139/108 124/138/107
f 92/71/40 94/69/38 130/140/109 127/139/108
f 94/69/38 96/66/35 133/141/110 130/140/109
f 96/66/35 68/65/34 136/142/111 133/141/110
f 68/65/34 67/95/64 139/143/112 136/142/111
f 67/95/64 72/92/61 142/144/113 139/143/112
f 72/92/61 75/89/58 145/145/114 142/144/113
f 75/89/58 78/86/55 148/146/115 145/145/114
f 78/86/55 81/82/51 151/147/116 148/146/115
f 81/82/51 83/80/49 154/148/117 151/147/116
f 83/80/49 85/78/47 157/149/118 154/148/117
f 85/78/47 87/76/45 160/150/119 157/149/118
f 87/76/45 89/74/43 163/151/120 160/150/119
f 89/74/43 91/72/41 166/152/121 163/151/120
f 91/72/41 93/70/39 169/153/122 166/152/121
f 93/70/39 95/68/37 172/154/123 169/153/122
f 95/68/37 66/67/36 175/155/124 172/154/123
f 66/67/36 65/96/65 178/156/125 175/155/124
f 65/96/65 71/93/62 181/157/126 178/156/125
f 71/93/62 74/90/59 184/158/127 181/157/126
f 74/90/59 77/87/56 187/159/128 184/158/127
f 77/87/56 80/84/53 190/160/129 187/159/128
f 80/84/53 70/83/52 101/130/99 190/160/129
f 98/101/70 100/106/75 102/161/130 99/162/131
f 99/162/131 102/161/130 101/130/99 97/129/98
f 104/102/71 98/101/70 99/162/131 105/163/132
f 105/163/132 99/162/131 97/129/98 103/131/100
f 107/109/78 104/102/71 105/163/132 108/164/133
f 108/164/133 105/163/132 103/131/100 106/132/101
f 110/110/79 107/109/78 108/164/133 111/165/134
f 111/165/134 108/164/133 106/132/101 109/133/102
f 113/112/81 110/110/79 111/165/134 114/166/135
f 114/166/135 111/165/134 109/133/102 112/134/103
f 116/114/83 113/112/81 114/166/135 117/167/136
f 117/167/136 114/166/135 112/134/103 115/135/104
f 119/116/85 116/114/83 117/167/136 120/168/137
f 120/168/137 117/167/136 115/135/104 118/136/105
f 122/118/87 119/116/85 120/168/137 123/169/138
f 123/169/138 120/168/137 118/136/105 121/137/106
f 125/120/89 122/118/87 123/169/138 126/170/139
f 126/170/139 123/169/138 121/137/106 124/138/107
f 128/122/91 125/120/89 126/170/139 129/171/140
f 129/171/140 126/170/139 124/138/107 127/139/108
f 131/124/93 128/122/91 129/171/140 132/172/141
f 132/172/141 129/171/140 127/139/108 130/140/109
f 134/126/95 131/124/93 132/172/141 135/173/142
f 135/173/142 132/172/141 130/140/109 133/141/110
f 137/128/97 134/126/95 135/173/142 138/174/143
f 138/174/143 135/173/142 133/141/110 136/142/111
f 140/99/68 137/128/97 138/174/143 141/175/144
f 141/175/144 138/174/143 136/142/111 139/143/112
f 143/100/69 140/99/68 141/175/144 144/176/145
f 144/176/145 141/175/144 139/143/112 142/144/113
f 146/104/73 143/100/69 144/176/145 147/177/146
f 147/177/146 144/176/145 142/144/113 145/145/114
f 149/108/77 146/104/73 147/177/146 150/178/147
f 150/178/147 147/177/146 145/145/114 148/146/115
f 152/111/80 149/108/77 150/178/147 153/179/148
f 153/179/148 150/178/147 148/146/115 151/147/116
f 155/113/82 152/111/80 153/179/148 156/180/149
f 156/180/149 153/179/148 151/147/116 154/148/117
f 158/115/84 155/113/82 156/180/149 159/181/150
f 159/181/150 156/180/149 154/148/117 157/149/118
f 161/117/86 158/115/84 159/181/150 162/182/151
f 162/182/151 159/181/150 157/149/118 160/150/119
f 164/119/88 161/117/86 162/182/151 165/183/152
f 165/183/152 162/182/151 160/150/119 163/151/120
f 167/121/90 164/119/88 165/183/152 168/184/153
f 168/184/153 165/183/152 163/151/120 166/152/121
f 170/123/92 167/121/90 168/184/153 171/185/154
f 171/185/154 168/184/153 166/152/121 169/153/122
f 173/125/94 170/123/92 171/185/154 174/186/155
f 174/186/155 171/185/154 169/153/122 172/154/123
f 176/127/96 173/125/94 174/186/155 177/187/156
f 177/187/156 174/186/155 172/154/123 175/155/124
f 179/97/66 176/127/96 177/187/156 180/188/157
f 180/188/157 177/187/156 175/155/124 178/156/125
f 182/98/67 179/97/66 180/188/157 183/189/158
f 183/189/158 180/188/157 178/156/125 181/157/126
f 185/103/72 182/98/67 183/189/158 186/190/159
f 186/190/159 183/189/158 181/157/126 184/158/127
f 188/107/76 185/103/72 186/190/159 189/191/160
f 189/191/160 186/190/159 184/158/127 187/159/128
f 191/105/74 188/107/76 189/191/160 192/192/161
f 192/192/161 189/191/160 187/159/128 190/160/129
f 100/106/75 191/105/74 192/192/161 102/161/130
f 102/161/130 192/192/161 190/160/129 101/130/99
f 34/34/33 33/33/33 100/106/75 98/101/70
