# Blender v3.2.0 OBJ File: 'WaifuPod.blend'
# www.blender.org
o Cube_Cube.001
v -0.337500 0.031500 0.037500
v -0.337500 1.081500 0.037500
v 0.337500 0.031500 0.037500
v 0.337500 1.081500 0.037500
v -0.371250 0.031500 -0.031250
v -0.371250 0.031500 0.031250
v -0.371250 1.081500 0.031250
v -0.371250 1.081500 -0.031250
v 0.371250 0.031500 0.031250
v 0.371250 0.031500 -0.031250
v 0.371250 1.081500 -0.031250
v 0.371250 1.081500 0.031250
v -0.337500 0.000000 -0.031250
v -0.337500 0.000000 0.031250
v -0.337500 1.113000 0.031250
v -0.337500 1.113000 -0.031250
v 0.337500 0.000000 0.031250
v 0.337500 0.000000 -0.031250
v 0.337500 1.113000 -0.031250
v 0.337500 1.113000 0.031250
v -0.337500 0.036750 -0.036000
v -0.334125 0.031500 -0.036000
v -0.340875 0.026250 -0.037500
v -0.337500 1.076250 -0.036000
v -0.340875 1.086750 -0.037500
v -0.334125 1.081500 -0.036000
v 0.334125 0.031500 -0.036000
v 0.337500 0.036750 -0.036000
v 0.340875 0.026250 -0.037500
v 0.334125 1.081500 -0.036000
v 0.340875 1.086750 -0.037500
v 0.337500 1.076250 -0.036000
v -0.367875 0.031500 -0.037500
v -0.371250 0.031500 -0.036000
v -0.367875 0.031500 0.037500
v -0.371250 0.031500 0.036000
v -0.371250 1.081500 0.036000
v -0.367875 1.081500 0.037500
v -0.367875 1.081500 -0.037500
v -0.371250 1.081500 -0.036000
v 0.367875 1.081500 -0.037500
v 0.371250 1.081500 -0.036000
v 0.371250 0.031500 -0.036000
v 0.367875 0.031500 -0.037500
v 0.367875 0.031500 0.037500
v 0.371250 0.031500 0.036000
v 0.371250 1.081500 0.036000
v 0.367875 1.081500 0.037500
v -0.337500 0.000000 -0.036000
v -0.337500 0.005250 -0.037500
v -0.337500 0.005250 0.037500
v -0.337500 0.000000 0.036000
v -0.337500 1.113000 0.036000
v -0.337500 1.107750 0.037500
v -0.337500 1.107750 -0.037500
v -0.337500 1.113000 -0.036000
v 0.337500 0.005250 -0.037500
v 0.337500 0.000000 -0.036000
v 0.337500 1.113000 -0.036000
v 0.337500 1.107750 -0.037500
v 0.337500 0.000000 0.036000
v 0.337500 0.005250 0.037500
v 0.337500 1.107750 0.037500
v 0.337500 1.113000 0.036000
v -0.367875 0.000000 -0.036000
v -0.371250 0.005250 -0.036000
v -0.367875 0.005250 -0.037500
v -0.367875 0.005250 0.037500
v -0.371250 0.005250 0.036000
v -0.367875 0.000000 0.036000
v -0.371250 1.107750 0.036000
v -0.367875 1.107750 0.037500
v -0.367875 1.113000 0.036000
v -0.367875 1.107750 -0.037500
v -0.371250 1.107750 -0.036000
v -0.367875 1.113000 -0.036000
v 0.367875 0.000000 0.036000
v 0.371250 0.005250 0.036000
v 0.367875 0.005250 0.037500
v 0.371250 0.005250 -0.036000
v 0.367875 0.000000 -0.036000
v 0.367875 0.005250 -0.037500
v 0.367875 1.113000 -0.036000
v 0.371250 1.107750 -0.036000
v 0.367875 1.107750 -0.037500
v 0.371250 1.107750 0.036000
v 0.367875 1.113000 0.036000
v 0.367875 1.107750 0.037500
v -0.337500 1.076250 -0.009000
v -0.334125 1.081500 -0.009000
v -0.334125 1.076250 -0.007500
v -0.337500 0.036750 -0.009000
v -0.334125 0.036750 -0.007500
v -0.334125 0.031500 -0.009000
v 0.334125 0.031500 -0.009000
v 0.334125 0.036750 -0.007500
v 0.337500 0.036750 -0.009000
v 0.334125 1.081500 -0.009000
v 0.337500 1.076250 -0.009000
v 0.334125 1.076250 -0.007500
v -0.367875 0.000000 -0.031250
v -0.371250 0.005250 -0.031250
v -0.371250 0.005250 0.031250
v -0.367875 0.000000 0.031250
v -0.367875 1.113000 0.031250
v -0.371250 1.107750 0.031250
v -0.371250 1.107750 -0.031250
v -0.367875 1.113000 -0.031250
v 0.367875 0.000000 0.031250
v 0.371250 0.005250 0.031250
v 0.371250 0.005250 -0.031250
v 0.367875 0.000000 -0.031250
v 0.367875 1.113000 -0.031250
v 0.371250 1.107750 -0.031250
v 0.371250 1.107750 0.031250
v 0.367875 1.113000 0.031250
v 0.337500 0.036750 -0.031354
v 0.334125 0.031500 -0.031354
v 0.337500 1.076250 -0.031354
v 0.334125 1.081500 -0.031354
v -0.334125 0.031500 -0.031354
v -0.337500 0.036750 -0.031354
v -0.334125 1.081500 -0.031354
v -0.337500 1.076250 -0.031354
vt 0.375000 1.000000
vt 0.375000 1.000000
vt 0.375000 1.000000
vt 0.375000 1.000000
vt 0.125000 0.583333
vt 0.125000 0.666667
vt 0.125000 0.666667
vt 0.125000 0.583333
vt 0.375000 0.250000
vt 0.375000 0.250000
vt 0.375000 0.250000
vt 0.375000 0.250000
vt 0.375000 0.750000
vt 0.625000 0.750000
vt 0.625000 1.000000
vt 0.625000 0.750000
vt 0.625000 1.000000
vt 0.375000 0.666667
vt 0.625000 0.666667
vt 0.625000 0.730000
vt 0.375000 0.730000
vt 0.375000 0.166667
vt 0.375000 0.230000
vt 0.375000 0.230000
vt 0.375000 0.166667
vt 0.625000 0.666667
vt 0.625000 0.730000
vt 0.125000 0.520000
vt 0.375000 0.520000
vt 0.375000 0.583333
vt 0.375000 0.500000
vt 0.375000 0.500000
vt 0.375000 0.500000
vt 0.375000 0.500000
vt 0.625000 0.083333
vt 0.625000 0.020000
vt 0.625000 0.020000
vt 0.625000 0.083333
vt 0.625000 0.230000
vt 0.625000 0.166667
vt 0.625000 0.166667
vt 0.625000 0.230000
vt 0.375000 0.750000
vt 0.375000 0.750000
vt 0.375000 0.750000
vt 0.625000 1.000000
vt 0.625000 1.000000
vt 0.875000 0.730000
vt 0.875000 0.666667
vt 0.875000 0.666667
vt 0.875000 0.730000
vt 0.376250 0.250000
vt 0.623750 0.250000
vt 0.623750 0.250000
vt 0.376250 0.250000
vt 0.375000 0.520000
vt 0.375000 0.583333
vt 0.375000 0.666667
vt 0.375000 0.730000
vt 0.125000 0.730000
vt 0.625000 0.520000
vt 0.625000 0.583333
vt 0.625000 0.583333
vt 0.625000 0.520000
vt 0.375000 0.520000
vt 0.375000 0.583333
vt 0.375000 0.583333
vt 0.375000 0.520000
vt 0.625000 0.666667
vt 0.625000 0.730000
vt 0.625000 0.500000
vt 0.625000 0.500000
vt 0.625000 0.500000
vt 0.625000 0.500000
vt 0.626250 0.250000
vt 0.373750 0.250000
vt 0.625000 0.250000
vt 0.375000 0.020000
vt 0.375000 0.083333
vt 0.375000 0.083333
vt 0.375000 0.020000
vt 0.375000 0.730000
vt 0.375000 0.666667
vt 0.623750 0.500000
vt 0.376250 0.500000
vt 0.376250 0.500000
vt 0.623750 0.500000
vt 0.375000 0.498750
vt 0.375000 0.251250
vt 0.375000 0.251250
vt 0.375000 0.498750
vt 0.625000 0.501250
vt 0.625000 0.248750
vt 0.625000 0.250000
vt 0.625000 0.251250
vt 0.625000 0.498750
vt 0.625000 0.498750
vt 0.625000 0.251250
vt 0.376250 0.500000
vt 0.623750 0.500000
vt 0.375000 0.251250
vt 0.375000 0.498750
vt 0.376250 0.251250
vt 0.623750 0.251250
vt 0.623750 0.498750
vt 0.376250 0.498750
vt 0.625000 0.750000
vt 0.625000 0.750000
vt 0.625000 0.730000
vt 0.625000 0.666667
vt 0.125000 0.730000
vt 0.875000 0.520000
vt 0.875000 0.583333
vt 0.375000 0.666667
vt 0.375000 0.730000
vt 0.625000 0.583333
vt 0.625000 0.583333
vt 0.875000 0.520000
vt 0.875000 0.583333
vt 0.125000 0.520000
vt 0.625000 0.520000
vt 0.625000 0.520000
vt 0.375000 0.248750
vt 0.375000 0.501250
vt 0.625000 0.250000
vt 0.625000 0.250000
vt 0.625000 0.251250
vt 0.625000 0.498750
vt 0.373750 0.500000
vt 0.626250 0.500000
vt 0.376250 0.250000
vt 0.623750 0.250000
vt 0.125000 0.520000
vt 0.125000 0.500000
vt 0.375000 0.000000
vt 0.375000 0.020000
vt 0.625000 0.000000
vt 0.625000 0.020000
vt 0.625000 0.230000
vt 0.375000 0.000000
vt 0.625000 0.000000
vt 0.125000 0.500000
vt 0.625000 0.250000
vt 0.625000 0.500000
vt 0.125000 0.750000
vt 0.625000 0.750000
vt 0.625000 1.000000
vt 0.125000 0.730000
vt 0.125000 0.666667
vt 0.625000 0.166667
vt 0.625000 0.250000
vt 0.625000 1.000000
vt 0.125000 0.750000
vt 0.125000 0.583333
vt 0.625000 0.083333
vn 0.0000 0.0000 1.0000
vn -0.2076 0.0000 0.9782
vn -0.2024 -0.1337 0.9701
vn 0.0000 -0.1387 0.9903
vn 0.0000 -1.0000 0.0000
vn -0.4792 -0.8777 0.0000
vn -0.2076 0.0000 -0.9782
vn 0.0357 0.0387 -0.9986
vn -0.0000 -0.1387 -0.9903
vn -0.2024 -0.1337 -0.9701
vn 0.0000 0.1387 0.9903
vn 1.0000 0.0000 0.0000
vn 0.8385 -0.0000 0.5449
vn -1.0000 0.0000 -0.0000
vn -0.8385 0.0000 -0.5449
vn -0.8333 -0.2357 -0.5001
vn -0.9595 -0.2818 -0.0000
vn 0.9595 0.2818 0.0000
vn 0.8333 0.2357 0.5001
vn 0.0000 -0.7983 -0.6022
vn -0.0357 0.0387 -0.9986
vn 0.2076 0.0000 -0.9782
vn 0.2024 -0.1337 -0.9701
vn -0.8385 -0.0000 0.5449
vn -0.8333 0.2357 0.5001
vn -0.9595 0.2818 0.0000
vn -0.8333 0.2357 -0.5001
vn 0.2076 0.0000 0.9782
vn 0.2024 -0.1337 0.9701
vn -0.2024 0.1337 0.9701
vn 0.0000 0.7983 0.6022
vn 0.0000 1.0000 0.0000
vn -0.4792 0.8777 0.0000
vn -0.3947 0.7576 0.5199
vn 0.9595 -0.2818 0.0000
vn 0.8333 -0.2357 -0.5001
vn 0.8333 0.2357 -0.5001
vn 0.3947 -0.7576 -0.5199
vn 0.4792 -0.8777 -0.0000
vn 0.0000 -0.7983 0.6022
vn 0.0000 0.7983 -0.6022
vn 0.4792 0.8777 -0.0000
vn 0.3947 0.7576 -0.5199
vn 0.8385 0.0000 -0.5449
vn -0.0357 -0.0387 -0.9986
vn -0.0000 0.1387 -0.9903
vn 0.2024 0.1337 -0.9701
vn 0.0357 -0.0387 -0.9986
vn -0.8333 -0.2357 0.5001
vn 0.8333 -0.2357 0.5001
vn -0.7596 -0.1703 -0.6277
vn -0.7596 0.1703 -0.6277
vn -0.2902 0.6036 -0.7426
vn 0.2902 0.6036 -0.7426
vn -0.3947 -0.7576 -0.5199
vn -0.3947 0.7576 -0.5199
vn -0.2024 0.1337 -0.9701
vn 0.2024 0.1337 0.9701
vn 0.3947 0.7576 0.5199
vn -0.3947 -0.7576 0.5199
vn 0.3947 -0.7576 0.5199
vn 0.2902 -0.6036 -0.7426
vn -0.2902 -0.6036 -0.7426
vn 0.7596 0.1703 -0.6277
vn 0.7596 -0.1703 -0.6277
s 1
f 1/1/1 35/2/2 68/3/3 51/4/4
f 13/5/5 14/6/5 104/7/6 101/8/6
f 33/9/7 23/10/8 50/11/9 67/12/10
f 3/13/1 4/14/1 2/15/1 1/1/1
f 2/15/1 4/14/1 63/16/11 54/17/11
f 9/18/12 12/19/12 47/20/13 46/21/13
f 5/22/14 34/23/15 66/24/16 102/25/17
f 47/20/13 12/19/12 115/26/18 86/27/19
f 49/28/20 58/29/20 18/30/5 13/5/5
f 29/31/21 44/32/22 82/33/23 57/34/9
f 7/35/14 37/36/24 71/37/25 106/38/26
f 40/39/15 8/40/14 107/41/26 75/42/27
f 45/43/28 3/13/1 62/44/4 79/45/29
f 38/46/2 2/15/1 54/17/11 72/47/30
f 3/13/1 1/1/1 51/4/4 62/44/4
f 53/48/31 15/49/32 105/50/33 73/51/34
f 122/52/18 124/53/35 89/54/36 92/55/37
f 18/30/5 58/29/20 81/56/38 112/57/39
f 14/6/5 17/58/5 61/59/40 52/60/40
f 59/61/41 19/62/32 113/63/42 83/64/43
f 5/22/14 8/40/14 40/39/15 34/23/15
f 43/65/44 10/66/12 111/67/35 80/68/36
f 20/69/32 15/49/32 53/48/31 64/70/31
f 41/71/22 31/72/45 60/73/46 85/74/47
f 25/75/48 23/76/8 33/9/7 39/77/7
f 36/78/24 6/79/14 103/80/17 69/81/49
f 9/18/12 46/21/13 78/82/50 110/83/35
f 32/84/51 28/85/52 117/86/26 119/87/17
f 27/88/53 22/89/54 121/90/42 118/91/33
f 31/92/45 25/93/48 55/94/46 60/73/46
f 123/95/39 120/96/6 98/97/55 90/98/38
f 119/87/17 117/86/26 97/99/27 99/100/16
f 118/91/33 121/90/42 94/101/43 95/102/56
f 93/103/47 91/104/23 100/105/10 96/106/57
f 36/78/24 37/36/24 7/35/14 6/79/14
f 8/40/14 7/35/14 106/38/26 107/41/26
f 4/14/1 48/107/28 88/108/58 63/16/11
f 20/69/32 64/70/31 87/109/59 116/110/42
f 19/62/32 20/69/32 116/110/42 113/63/42
f 14/6/5 52/60/40 70/111/60 104/7/6
f 6/79/14 5/22/14 102/25/17 103/80/17
f 59/61/41 56/112/41 16/113/32 19/62/32
f 10/66/12 9/18/12 110/83/35 111/67/35
f 61/59/40 17/58/5 109/114/39 77/115/61
f 12/19/12 11/116/12 114/117/18 115/26/18
f 16/113/32 56/112/41 76/118/56 108/119/33
f 19/62/32 16/113/32 15/49/32 20/69/32
f 49/28/20 13/5/5 101/8/6 65/120/55
f 13/5/5 18/30/5 17/58/5 14/6/5
f 43/65/44 42/121/44 11/116/12 10/66/12
f 15/49/32 16/113/32 108/119/33 105/50/33
f 11/116/12 42/121/44 84/122/37 114/117/18
f 10/66/12 11/116/12 12/19/12 9/18/12
f 1/1/1 2/15/1 38/46/2 35/2/2
f 6/79/14 7/35/14 8/40/14 5/22/14
f 4/14/1 3/13/1 45/43/28 48/107/28
f 17/58/5 18/30/5 112/57/39 109/114/39
f 23/123/8 29/124/21 57/34/9 50/11/9
f 25/125/48 39/77/7 74/126/57 55/94/46
f 26/127/62 30/128/63 120/96/6 123/95/39
f 29/129/21 31/130/45 41/71/22 44/32/22
f 21/131/64 22/89/54 23/76/8
f 24/132/65 25/93/48 26/127/62
f 27/88/53 28/85/52 29/124/21
f 30/128/63 31/130/45 32/84/51
f 65/120/55 66/133/16 67/134/10
f 68/135/3 69/81/49 70/136/60
f 71/37/25 72/137/30 73/138/34
f 74/126/57 75/42/27 76/139/56
f 77/115/61 78/82/50 79/45/29
f 80/68/36 81/56/38 82/33/23
f 83/64/43 84/122/37 85/74/47
f 86/27/19 87/109/59 88/108/58
f 89/54/36 90/98/38 91/104/23
f 92/55/37 93/103/47 94/101/43
f 95/102/56 96/106/57 97/99/27
f 98/97/55 99/100/16 100/105/10
f 36/78/24 69/81/49 68/135/3 35/140/2
f 24/132/65 21/131/64 23/76/8 25/75/48
f 29/124/21 23/123/8 22/89/54 27/88/53
f 25/93/48 31/92/45 30/128/63 26/127/62
f 31/130/45 29/129/21 28/85/52 32/84/51
f 74/126/57 39/77/7 40/39/15 75/42/27
f 38/141/2 72/137/30 71/37/25 37/36/24
f 35/140/2 38/141/2 37/36/24 36/78/24
f 39/77/7 33/9/7 34/23/15 40/39/15
f 42/121/44 43/65/44 44/32/22 41/71/22
f 48/107/28 45/43/28 46/21/13 47/20/13
f 58/29/20 49/28/20 50/142/9 57/34/9
f 56/143/41 59/144/41 60/73/46 55/94/46
f 52/60/40 61/59/40 62/44/4 51/145/4
f 64/146/31 53/147/31 54/17/11 63/16/11
f 104/7/6 70/111/60 69/148/49 103/149/17
f 108/150/33 76/139/56 75/42/27 107/41/26
f 112/57/39 81/56/38 80/68/36 111/67/35
f 116/110/42 87/109/59 86/27/19 115/26/18
f 49/28/20 65/120/55 67/134/10 50/142/9
f 76/151/56 56/143/41 55/94/46 74/126/57
f 53/147/31 73/152/34 72/47/30 54/17/11
f 70/111/60 52/60/40 51/145/4 68/153/3
f 63/16/11 88/108/58 87/109/59 64/70/31
f 85/74/47 60/73/46 59/61/41 83/64/43
f 81/56/38 58/29/20 57/34/9 82/33/23
f 61/59/40 77/115/61 79/45/29 62/44/4
f 47/20/13 86/27/19 88/108/58 48/107/28
f 45/43/28 79/45/29 78/82/50 46/21/13
f 82/33/23 44/32/22 43/65/44 80/68/36
f 84/122/37 42/121/44 41/71/22 85/74/47
f 33/9/7 67/12/10 66/24/16 34/23/15
f 91/104/23 93/103/47 92/55/37 89/54/36
f 95/102/56 94/101/43 93/103/47 96/106/57
f 90/98/38 98/97/55 100/105/10 91/104/23
f 99/100/16 97/99/27 96/106/57 100/105/10
f 118/91/33 95/102/56 97/99/27 117/86/26
f 120/96/6 30/128/63 32/84/51 119/87/17
f 122/52/18 92/55/37 94/101/43 121/90/42
f 124/53/35 24/132/65 26/127/62 123/95/39
f 65/120/55 101/8/6 102/154/17 66/133/16
f 101/8/6 104/7/6 103/149/17 102/154/17
f 73/138/34 105/155/33 106/38/26 71/37/25
f 105/155/33 108/150/33 107/41/26 106/38/26
f 77/115/61 109/114/39 110/83/35 78/82/50
f 109/114/39 112/57/39 111/67/35 110/83/35
f 83/64/43 113/63/42 114/117/18 84/122/37
f 113/63/42 116/110/42 115/26/18 114/117/18
f 27/88/53 118/91/33 117/86/26 28/85/52
f 98/97/55 120/96/6 119/87/17 99/100/16
f 21/131/64 122/52/18 121/90/42 22/89/54
f 89/54/36 124/53/35 123/95/39 90/98/38
f 21/131/64 24/132/65 124/53/35 122/52/18
